<svg xmlns="http://www.w3.org/2000/svg" width="39.279" height="45.271" viewBox="0 0 39.279 45.271">
  <g id="Group_5103" data-name="Group 5103" transform="translate(422.688 -223.383)">
    <path id="Path_10528" data-name="Path 10528" d="M-411.532,223.383c1.6.5,3.19,1,4.789,1.492q7.246,2.216,14.494,4.424a2.041,2.041,0,0,0,.608.082c1.518,0,3.035-.014,4.553.008a2.136,2.136,0,0,1,2.073,1.824,2.182,2.182,0,0,1-1.471,2.387,2.823,2.823,0,0,1-1.18.109c-.427-.044-.567.068-.555.532.037,1.443.015,2.888.013,4.331,0,.621-.158.8-.775.9a.894.894,0,0,0-.776.922.909.909,0,0,0,.835.83.888.888,0,0,0,.913-.783c.007-.043,0-.089.011-.132a.682.682,0,0,1,.721-.628.668.668,0,0,1,.6.741,2.206,2.206,0,0,1-1.991,2.121,2.232,2.232,0,0,1-2.347-1.668,2.166,2.166,0,0,1,1.175-2.506.483.483,0,0,0,.315-.533c-.013-1.223-.021-2.446,0-3.669.007-.363-.079-.466-.452-.463-2.519.017-5.039.01-7.558.008a1.818,1.818,0,0,1-.48-.039.609.609,0,0,1-.485-.693.611.611,0,0,1,.609-.587c.132-.01.265-.005.4-.005h10.034a1.445,1.445,0,0,0,.609-.074.805.805,0,0,0,.517-.881.808.808,0,0,0-.722-.718,3.9,3.9,0,0,0-.441-.012q-9.9,0-19.8-.011c-.434,0-.488.127-.393.492.1.383.036.908.271,1.128.26.243.783.071,1.192.073,1.694.007,3.389,0,5.083,0,.574,0,.855.218.856.653s-.3.671-.851.671c-1.886,0-3.772.008-5.658-.006-.325,0-.454.038-.4.418a1.021,1.021,0,0,1-1.165,1.269c-.37-.01-.452.088-.452.454q.017,13.923,0,27.847c0,.367.083.5.453.448a3.564,3.564,0,0,1,.53,0,.852.852,0,0,1,.887.653c.277.9.555,1.8.809,2.7a.845.845,0,0,1-.873,1.152q-4.73.01-9.459,0a.854.854,0,0,1-.874-1.162c.257-.9.538-1.8.824-2.7.153-.479.422-.642.974-.648.892-.009.892-.009.892-.888q0-13.658.009-27.316c0-.4-.048-.562-.506-.544a1.011,1.011,0,0,1-1.081-1.3c.054-.328-.038-.393-.348-.384-.751.021-1.5.015-2.254,0-.234,0-.3.07-.3.3q.023.883,0,1.768c-.006.236.075.311.3.3.294-.015.59-.013.884,0a1.024,1.024,0,0,1,1.072,1.053c.026.765.027,1.533,0,2.3a1.014,1.014,0,0,1-1.08,1.045q-1.834.03-3.668,0a1.007,1.007,0,0,1-1.063-1.1q-.014-1.1,0-2.21a1.022,1.022,0,0,1,1.075-1.09c.044,0,.089,0,.132,0,.333-.028.788.152.966-.08.166-.217.056-.65.057-.987,0-.411.145-.942-.056-1.2-.213-.274-.769-.064-1.175-.089a.957.957,0,0,1-1-1q-.016-1.171,0-2.343a.888.888,0,0,1,1-.977,2.572,2.572,0,0,0,1.7-.55c2.655-1.821,5.328-3.615,7.995-5.42.009-.006.009-.027.013-.041Z" fill="#fff"/>
    <path id="Path_10529" data-name="Path 10529" d="M-253.595,395.971h-9.239a2.1,2.1,0,0,1-.441-.014.63.63,0,0,1-.547-.652.641.641,0,0,1,.551-.651.922.922,0,0,1,.132-.009c.274-.026.638.123.8-.064s.054-.564.055-.856c0-2.048,0-4.1,0-6.144a2.206,2.206,0,0,1,.031-.483.6.6,0,0,1,.6-.492.593.593,0,0,1,.64.436,1.966,1.966,0,0,1,.054.568c0,2.21.009,4.42-.006,6.631,0,.32.059.421.4.415,1.267-.024,2.534-.019,3.8,0,.293,0,.362-.08.359-.364-.015-1.385-.008-2.77-.006-4.155,0-.739.305-1.039,1.052-1.041q1.79,0,3.581,0c.718,0,1.023.307,1.024,1.02,0,1.4.009,2.8-.006,4.2,0,.274.067.343.34.34q1.945-.023,3.89,0c.293,0,.364-.081.363-.367q-.014-6.5,0-13c0-.292-.079-.368-.368-.365-1.547.014-3.094.008-4.641.006-.87,0-1.2-.333-1.207-1.2-.007-.843-.007-.843-.855-.843-2.431,0-4.863.007-7.294-.008-.34,0-.443.076-.438.43.021,1.517.01,3.035.007,4.553a1.953,1.953,0,0,1-.041.481.6.6,0,0,1-.652.479.563.563,0,0,1-.6-.534c-.044-1.973-.061-3.947.008-5.92a.673.673,0,0,1,.369-.574c.306-.148.305-.377.3-.652q-.009-4.155,0-8.311c0-.147-.005-.3.009-.442a.612.612,0,0,1,.625-.616.628.628,0,0,1,.677.563c.052.226-.109.553.093.661a1.8,1.8,0,0,0,.777.046c1.532,0,3.065-.012,4.6.01.41.006.654-.045.566-.534a.606.606,0,0,1,.134-.5.631.631,0,0,1,.626-.245.6.6,0,0,1,.518.477,2.38,2.38,0,0,1,.04.482c0,1.739.007,3.478,0,5.216,0,.272.045.377.352.374q2.652-.024,5.3,0c.288,0,.395-.07.368-.365a7.02,7.02,0,0,1,0-.839c.014-.469.245-.739.631-.754a.664.664,0,0,1,.689.745c.013.943,0,1.886,0,2.829,0,1.105,0,2.21,0,3.315a.515.515,0,0,0,.257.54,1.144,1.144,0,0,1,.475,1.117c0,4.406,0,8.812-.013,13.217,0,.414.078.6.514.518a1.245,1.245,0,0,1,.265,0c.476.012.763.267.757.672s-.292.652-.777.652q-3.8,0-7.6,0Z" transform="translate(-140.095 -127.321)" fill="#fff"/>
    <path id="Path_10530" data-name="Path 10530" d="M-225.706,495.189c0-.427-.008-.854,0-1.282a.831.831,0,0,1,.848-.93q1.435-.041,2.871,0a.791.791,0,0,1,.82.858c.02.942.021,1.886,0,2.828a.815.815,0,0,1-.881.849c-.913.016-1.827.014-2.74,0a.854.854,0,0,1-.915-.914C-225.716,496.132-225.706,495.66-225.706,495.189Z" transform="translate(-173.703 -237.722)" fill="#fff"/>
    <path id="Path_10531" data-name="Path 10531" d="M-162.455,495.242c0,.457.009.914,0,1.37a.843.843,0,0,1-.879.9q-1.391.026-2.784,0a.812.812,0,0,1-.868-.858q-.026-1.413,0-2.828a.783.783,0,0,1,.824-.85q1.435-.041,2.871,0a.818.818,0,0,1,.835.895C-162.447,494.329-162.455,494.786-162.455,495.242Z" transform="translate(-225.475 -237.722)" fill="#fff"/>
    <path id="Path_10532" data-name="Path 10532" d="M-310.236,241.4c-3.61,0-7.219,0-10.829.009-.316,0-.405-.122-.433-.392a1.747,1.747,0,0,0-.255-.879,1.054,1.054,0,0,0-.916-.439c-.5,0-1-.01-1.5,0-.232.006-.345-.039-.337-.31.019-.692.026-1.385,0-2.077-.015-.366.12-.325.381-.244,1.837.57,3.679,1.126,5.518,1.687l8.088,2.471c.106.033.209.075.314.113Z" transform="translate(-86.576 -12.025)" fill="#12466a"/>
    <path id="Path_10533" data-name="Path 10533" d="M-350.122,275.923c-.113.008-.212.021-.311.022-1.9,0-3.8,0-5.7.007-.295,0-.354-.051-.3-.36.269-1.444.511-2.894.746-4.345.046-.283.139-.392.444-.387,1.251.018,2.5.024,3.753,0,.385-.008.523.1.583.485C-350.665,272.852-350.392,274.356-350.122,275.923Z" transform="translate(-58.415 -41.865)" fill="#12466a"/>
    <path id="Path_10534" data-name="Path 10534" d="M-356.877,581.381H-365.2c.169-.569.334-1.114.49-1.662.046-.163.15-.184.3-.184q3.379,0,6.758,0c.142,0,.235.014.283.19C-357.226,580.276-357.049,580.818-356.877,581.381Z" transform="translate(-50.692 -314.07)" fill="#12466a"/>
    <path id="Path_10535" data-name="Path 10535" d="M-408.876,284.909c.853,0,1.705.008,2.558,0,.237,0,.313.06.263.3-.076.359-.143.721-.188,1.084-.032.261-.155.317-.405.315q-2.359-.019-4.719,0c-.26,0-.372-.046-.351-.333.032-.436-.139-1.014.081-1.275s.826-.067,1.261-.079C-409.876,284.9-409.376,284.909-408.876,284.909Z" transform="translate(-9.644 -54.204)" fill="#12466a"/>
    <path id="Path_10536" data-name="Path 10536" d="M-385.847,243.641l5.93-4.013c0,.768,0,1.476,0,2.184,0,.2-.131.191-.267.19-.47,0-.941-.005-1.411,0a1.1,1.1,0,0,0-1.246,1.079c-.1.622-.1.622-.746.622l-2.161,0C-385.757,243.7-385.768,243.689-385.847,243.641Z" transform="translate(-32.488 -14.326)" fill="#12466a"/>
    <path id="Path_10537" data-name="Path 10537" d="M-409.892,343.761c-.427,0-.854-.01-1.28,0-.216.007-.319-.035-.307-.284.02-.411.014-.824,0-1.235-.006-.2.067-.247.254-.246q1.324.012,2.648,0c.212,0,.283.073.277.283-.013.4-.017.795,0,1.191.012.25-.1.3-.315.29C-409.038,343.753-409.465,343.761-409.892,343.761Z" transform="translate(-9.884 -104.602)" fill="#12466a"/>
    <path id="Path_10538" data-name="Path 10538" d="M-334.65,327.848l-2.444-2.7h2.28c.218,0,.161.165.162.284C-334.649,326.2-334.65,326.957-334.65,327.848Z" transform="translate(-75.48 -89.743)" fill="#12476b"/>
    <path id="Path_10539" data-name="Path 10539" d="M-336.487,537.216c.793,0,1.477,0,2.161,0,.183,0,.214.094.213.249,0,.745,0,1.49,0,2.374Z" transform="translate(-76.015 -276.75)" fill="#12476b"/>
    <path id="Path_10540" data-name="Path 10540" d="M-336.465,368.129h2.2c.17,0,.172.119.172.244,0,.747,0,1.493,0,2.37Z" transform="translate(-76.035 -127.643)" fill="#12476b"/>
    <path id="Path_10541" data-name="Path 10541" d="M-334.1,455.276l-2.37-2.62c.787,0,1.47,0,2.152,0,.222,0,.219.13.219.287C-334.1,453.672-334.1,454.4-334.1,455.276Z" transform="translate(-76.035 -202.181)" fill="#12476b"/>
    <path id="Path_10542" data-name="Path 10542" d="M-336.468,410.391c.781,0,1.465.007,2.149,0,.222,0,.223.117.222.278,0,.735,0,1.471,0,2.337Z" transform="translate(-76.032 -164.908)" fill="#12476b"/>
    <path id="Path_10543" data-name="Path 10543" d="M-334.083,497.613-336.451,495c.788,0,1.5,0,2.2,0,.182,0,.163.125.163.243C-334.083,495.989-334.083,496.737-334.083,497.613Z" transform="translate(-76.047 -239.523)" fill="#12476b"/>
    <path id="Path_10544" data-name="Path 10544" d="M-343.454,377.14l2.356,2.606c-.78,0-1.477,0-2.174,0-.129,0-.184-.046-.183-.178C-343.452,378.8-343.454,378.025-343.454,377.14Z" transform="translate(-69.871 -135.589)" fill="#12476b"/>
    <path id="Path_10545" data-name="Path 10545" d="M-341.108,464.338c-.776,0-1.463-.006-2.149,0-.188,0-.214-.08-.213-.238.006-.75,0-1.5,0-2.37Z" transform="translate(-69.857 -210.188)" fill="#12476b"/>
    <path id="Path_10546" data-name="Path 10546" d="M-343.459,546.294l2.356,2.6c-.781,0-1.48,0-2.179,0-.13,0-.18-.047-.179-.18C-343.457,547.948-343.459,547.176-343.459,546.294Z" transform="translate(-69.865 -284.757)" fill="#12476b"/>
    <path id="Path_10547" data-name="Path 10547" d="M-341.1,337.477c-.785,0-1.467,0-2.15,0-.15,0-.208-.053-.207-.2,0-.759,0-1.519,0-2.4Z" transform="translate(-69.865 -98.318)" fill="#12476b"/>
    <path id="Path_10548" data-name="Path 10548" d="M-343.458,419.407l2.352,2.6c-.788,0-1.472,0-2.157,0-.16,0-.2-.073-.2-.215C-343.456,421.042-343.458,420.285-343.458,419.407Z" transform="translate(-69.866 -172.862)" fill="#12476b"/>
    <path id="Path_10549" data-name="Path 10549" d="M-343.449,503.985l2.351,2.6c-.8,0-1.5,0-2.191,0-.146,0-.161-.091-.16-.2C-343.448,505.623-343.449,504.863-343.449,503.985Z" transform="translate(-69.876 -247.447)" fill="#12476b"/>
    <path id="Path_10550" data-name="Path 10550" d="M-230.611,389.784c.9,0,1.794.008,2.692-.005.249,0,.329.072.327.324-.012,1.118-.01,2.236,0,3.353,0,.208-.056.279-.272.278q-2.736-.011-5.471,0c-.2,0-.28-.046-.278-.266.01-1.132.013-2.265,0-3.4,0-.293.149-.291.359-.29C-232.376,389.787-231.494,389.784-230.611,389.784Z" transform="translate(-166.73 -146.735)" fill="#12466a"/>
    <path id="Path_10551" data-name="Path 10551" d="M-168.876,434.086c.882,0,1.765.01,2.646-.006.275,0,.384.051.379.356-.019,1.088-.014,2.176,0,3.264,0,.26-.055.358-.339.354q-1.742-.025-3.484,0c-.275,0-.377-.077-.34-.347a2.262,2.262,0,0,0,0-.308c0-1.058-.336-1.408-1.4-1.387-.358.007-.506-.076-.465-.453.051-.477-.2-1.119.1-1.391.26-.238.892-.074,1.36-.08C-169.905,434.081-169.39,434.086-168.876,434.086Z" transform="translate(-221.131 -185.764)" fill="#12466a"/>
    <path id="Path_10552" data-name="Path 10552" d="M-186.864,561.573c0,.6-.008,1.207,0,1.811,0,.2-.042.281-.264.277-.824-.013-1.649-.016-2.473,0-.255.005-.279-.1-.277-.31.008-1.192.011-2.385,0-3.577,0-.256.042-.362.332-.354.794.022,1.59.016,2.385,0,.231,0,.305.061.3.3C-186.874,560.337-186.864,560.955-186.864,561.573Z" transform="translate(-205.303 -296.332)" fill="#12466a"/>
    <path id="Path_10553" data-name="Path 10553" d="M-230.68,436.333c-.853,0-1.706-.018-2.557.009-.345.011-.428-.105-.407-.425.026-.41.017-.823,0-1.234-.008-.217.074-.271.28-.27q2.734.01,5.468,0c.218,0,.278.076.273.28-.011.441-.016.882,0,1.323.01.251-.075.327-.326.323C-228.858,436.324-229.769,436.333-230.68,436.333Z" transform="translate(-166.703 -186.094)" fill="#12466a"/>
    <path id="Path_10554" data-name="Path 10554" d="M-212.563,505.264c0,.932,0,.932-.933.932-.966,0-.966,0-.966-.982,0-.914,0-.914.906-.914h.044C-212.563,504.3-212.563,504.3-212.563,505.264Z" transform="translate(-183.622 -247.725)" fill="#12466a"/>
    <path id="Path_10555" data-name="Path 10555" d="M-153.848,505.245c0,.954,0,.954-.956.954-.934,0-.934,0-.934-.937,0-.959,0-.959.962-.959C-153.848,504.3-153.848,504.3-153.848,505.245Z" transform="translate(-235.408 -247.727)" fill="#12466a"/>
  </g>
</svg>
