<svg xmlns="http://www.w3.org/2000/svg" width="36.836" height="36.399" viewBox="0 0 36.836 36.399">
  <g id="Group_5106" data-name="Group 5106" transform="translate(-426.728 -172.86)">
    <path id="Path_10594" data-name="Path 10594" d="M463.564,198.333a2.04,2.04,0,0,0-.2.882,12.193,12.193,0,0,1-9.856,9.842,11.972,11.972,0,0,1-10.907-3.472.647.647,0,0,0-.5-.206c-2.722.006-5.444.013-8.166,0a3.3,3.3,0,0,1-3.321-3.445,3.11,3.11,0,0,1,1.04-2.253c.186-.171.159-.242-.008-.4a3.265,3.265,0,0,1-.008-4.771c.153-.146.22-.212.022-.4a3.248,3.248,0,0,1,0-4.79c.187-.176.153-.245-.011-.4a3.27,3.27,0,0,1-.809-3.595,3.322,3.322,0,0,1,3.037-2.1c.62-.01,1.241,0,1.907,0a3.556,3.556,0,0,1-.567-1.857,3.4,3.4,0,0,1,.566-1.866c-.143-.007-.255-.018-.366-.018-1.8,0-3.6.011-5.4,0a3.3,3.3,0,0,1-.123-6.607c.923-.024,1.847-.008,2.77-.008q7.465,0,14.929,0A3.311,3.311,0,0,1,450.424,178c.112.082.233.042.342.042,1.811,0,3.622-.011,5.432.007a3.3,3.3,0,0,1,.1,6.606c-.654.021-1.309,0-1.978,0a1.052,1.052,0,0,0,.75.746,12.1,12.1,0,0,1,8.366,9.876c.036.2-.022.427.127.605v.36a.093.093,0,0,0,0,.144v1.295c-.048.044-.034.1-.037.159s-.021.143.037.2Z" transform="translate(0)" fill="#fff"/>
    <path id="Path_10595" data-name="Path 10595" d="M809.153,432.549c-.123-.041-.055-.135-.059-.209.016-.037.035-.041.059-.007Z" transform="translate(-345.589 -234.503)" fill="#838383"/>
    <path id="Path_10596" data-name="Path 10596" d="M809.241,416.24c-.077-.048-.095-.1,0-.144Z" transform="translate(-345.677 -219.849)" fill="#545454"/>
    <path id="Path_10597" data-name="Path 10597" d="M809.226,431.2a.214.214,0,0,1-.059.007c-.015-.064-.011-.12.059-.151Z" transform="translate(-345.662 -233.376)" fill="#535353"/>
    <path id="Path_10598" data-name="Path 10598" d="M570.391,322.871a10.792,10.792,0,1,1,10.781,10.8A10.808,10.808,0,0,1,570.391,322.871Z" transform="translate(-129.85 -125.843)" fill="#124567"/>
    <path id="Path_10599" data-name="Path 10599" d="M452.308,191.611c-2.924,0-5.848.006-8.771,0a1.86,1.86,0,0,1-1.7-2.726,1.805,1.805,0,0,1,1.695-1.011c1.7,0,3.4,0,5.1,0q6.2,0,12.4,0a1.87,1.87,0,1,1,.041,3.738c-2.421.007-4.841,0-7.262,0Z" transform="translate(-13.457 -13.566)" fill="#124567"/>
    <path id="Path_10600" data-name="Path 10600" d="M540.667,241.731c2.936,0,5.872-.008,8.807,0a1.871,1.871,0,1,1-.1,3.739q-6.471-.005-12.941,0-2.229,0-4.458,0a1.873,1.873,0,1,1-.007-3.74Q536.317,241.728,540.667,241.731Z" transform="translate(-93.331 -62.247)" fill="#124567"/>
    <path id="Path_10601" data-name="Path 10601" d="M501.946,295.763a12.14,12.14,0,0,0-9.045,3.418.586.586,0,0,1-.443.172c-2.8-.005-5.609,0-8.414,0a1.871,1.871,0,1,1,0-3.739q8.737,0,17.475,0a3.019,3.019,0,0,1,.639.084C502.139,295.868,502.024,295.763,501.946,295.763Z" transform="translate(-50.044 -110.945)" fill="#124567"/>
    <path id="Path_10602" data-name="Path 10602" d="M491.411,349.513a12.6,12.6,0,0,0-1.42,2.561c-.079.2-.159.4-.232.6-.2.569-.2.57-.791.57-1.7,0-3.4.008-5.1,0a1.865,1.865,0,0,1-.594-3.625,1.765,1.765,0,0,1,.6-.111h7.367C491.277,349.505,491.32,349.509,491.411,349.513Z" transform="translate(-49.977 -159.661)" fill="#124567"/>
    <path id="Path_10603" data-name="Path 10603" d="M491.289,460.931H487.7c-1.211,0-2.421,0-3.632,0a1.872,1.872,0,1,1-.007-3.739q2.607-.005,5.215,0c.127,0,.276-.064.336.154A12.113,12.113,0,0,0,491.289,460.931Z" transform="translate(-50.043 -256.987)" fill="#124567"/>
    <path id="Path_10604" data-name="Path 10604" d="M489.264,407.1h-1.774c-1.139,0-2.277,0-3.416,0a1.873,1.873,0,1,1,.008-3.74c1.642,0,3.284,0,4.926,0,.172,0,.325-.032.277.248A11.556,11.556,0,0,0,489.264,407.1Z" transform="translate(-50.044 -208.331)" fill="#124567"/>
    <path id="Path_10605" data-name="Path 10605" d="M688.558,296.524c.064-.042.161.014.21-.072.08-.016.126.03.179.115A.536.536,0,0,1,688.558,296.524Z" transform="translate(-236.656 -111.706)" fill="#717171"/>
    <path id="Path_10606" data-name="Path 10606" d="M651.2,370.44a.722.722,0,1,1,1.437-.061,1.445,1.445,0,0,0,1.3,1.314,1.61,1.61,0,0,0,1.79-.945,1.363,1.363,0,0,0-1.123-1.725c-.376-.079-.763-.042-1.141-.133a2.885,2.885,0,0,1-2.265-2.561,2.788,2.788,0,0,1,2-2.791c.229-.076.317-.162.309-.415a.712.712,0,1,1,1.42-.024c-.012.292.117.371.354.457a2.788,2.788,0,0,1,1.929,2.252,1.68,1.68,0,0,1,.024.393.7.7,0,0,1-.7.68.659.659,0,0,1-.722-.643,1.577,1.577,0,0,0-2.115-1.362,1.392,1.392,0,0,0-1.061,1.4,1.459,1.459,0,0,0,1.339,1.241,5.384,5.384,0,0,1,1.273.2,2.736,2.736,0,0,1,.009,5.261c-.231.077-.337.16-.335.43a.708.708,0,0,1-1.416-.014c0-.253-.084-.336-.312-.411A2.806,2.806,0,0,1,651.2,370.44Z" transform="translate(-202.892 -171.269)" fill="#fff"/>
    <path id="Path_10607" data-name="Path 10607" d="M720.39,344.443a9.539,9.539,0,0,1-.993,4.252c-.27.538-.628.717-1.045.516s-.507-.613-.255-1.135a7.945,7.945,0,0,0-3.588-10.671.722.722,0,1,1,.656-1.278,9.162,9.162,0,0,1,3.254,2.655A9.271,9.271,0,0,1,720.39,344.443Z" transform="translate(-259.7 -147.48)" fill="#fff"/>
    <path id="Path_10608" data-name="Path 10608" d="M585.3,379.826a9.751,9.751,0,0,1,1.068-4.583.7.7,0,0,1,.791-.421.683.683,0,0,1,.583.6.949.949,0,0,1-.161.613,7.453,7.453,0,0,0-.825,3.813,7.833,7.833,0,0,0,4.1,6.657c.134.078.277.141.408.224a.714.714,0,0,1-.664,1.263,8.25,8.25,0,0,1-1.982-1.282A9.212,9.212,0,0,1,585.3,379.826Z" transform="translate(-143.329 -182.533)" fill="#fff"/>
    <path id="Path_10609" data-name="Path 10609" d="M687.146,327.056a.719.719,0,1,1-.75.708A.73.73,0,0,1,687.146,327.056Z" transform="translate(-234.701 -139.371)" fill="#fff"/>
    <path id="Path_10610" data-name="Path 10610" d="M664.943,507.372a.741.741,0,1,1-.727-.73A.728.728,0,0,1,664.943,507.372Z" transform="translate(-213.973 -301.689)" fill="#fff"/>
  </g>
</svg>
