<svg xmlns="http://www.w3.org/2000/svg" width="42.115" height="42.125" viewBox="0 0 42.115 42.125">
  <g id="Group_5107" data-name="Group 5107" transform="translate(-486.85 -169.638)">
    <path id="Path_10611" data-name="Path 10611" d="M510.536,169.638c.067.792.315,1.55.449,2.329.026.15.143.183.264.219a10.179,10.179,0,0,1,2.111.885.336.336,0,0,0,.4-.035c.558-.371,1.128-.725,1.681-1.1.184-.126.285-.1.438.051q1.588,1.61,3.2,3.2a.342.342,0,0,1,.093.457c-.218.469-.409.95-.627,1.463a6.4,6.4,0,0,1,1.358.154,4.925,4.925,0,0,1,3.61,4.489,11.11,11.11,0,0,1-.044,2.134,4.7,4.7,0,0,1-1.749,3.059c-.127.1-.272.183-.239.39.035.225.232.164.356.2a23.614,23.614,0,0,1,3.225.923c.125.058.211-.02.3-.067a8.386,8.386,0,0,0,1.12-.6,3.351,3.351,0,0,1,2.229-.487c.2.007.248.066.248.258q-.008,4.728,0,9.457c0,.246-.154.285-.308.362q-5.756,2.877-11.515,5.747a.681.681,0,0,0-.448.67,1.979,1.979,0,0,1-1.659,1.784c-.268.041-.356.131-.393.4a1.981,1.981,0,0,1-1.7,1.652c-.227.028-.29.113-.328.317a1.987,1.987,0,0,1-1.764,1.732c-.2.03-.227.1-.259.274a2.121,2.121,0,0,1-3.5,1.284,1.069,1.069,0,0,0-1.254-.278,2.017,2.017,0,0,1-2.618-1.6.394.394,0,0,0-.371-.384,2.012,2.012,0,0,1-1.68-1.728c-.033-.209-.116-.253-.3-.291a2.054,2.054,0,0,1-1.744-1.772c-.032-.188-.1-.236-.275-.266a2.049,2.049,0,0,1-1.755-1.712.631.631,0,0,0-.351-.493q-.766-.437-1.513-.906c-.176-.11-.281-.1-.3.114-.025.3-.209.313-.453.323a4.826,4.826,0,0,1-1.807-.279c-1.872-.645-3.753-1.26-5.63-1.889a1.805,1.805,0,0,1-.184-.084V185.923a.628.628,0,0,1,.468-.107,4.134,4.134,0,0,1,3.27.88c.517.309,1.042.607,1.562.913a.849.849,0,0,0,.705.1c.316-.089.638-.158.956-.244.128-.034.3-.026.345-.18s-.108-.237-.206-.326a5.241,5.241,0,0,1-1.315-1.716,4.677,4.677,0,0,1-.458-1.986,13.677,13.677,0,0,1,.065-2.133,4.869,4.869,0,0,1,4.369-4.1c.481-.047.487-.051.293-.507-.113-.265-.219-.533-.341-.793a.489.489,0,0,1,.085-.6q1.6-1.624,3.227-3.227a.424.424,0,0,1,.594-.019c.473.3.936.622,1.407.928a.685.685,0,0,0,.8.04,7.86,7.86,0,0,1,1.667-.693.573.573,0,0,0,.44-.484c.1-.511.214-1.019.326-1.528a.985.985,0,0,1,.169-.5Z" transform="translate(0)" fill="#fff"/>
    <path id="Path_10613" data-name="Path 10613" d="M702.7,394.957a.672.672,0,0,1,.042.4c0,2.261,0,4.521.01,6.782a.554.554,0,0,1-.37.583q-5.376,2.671-10.736,5.374a.47.47,0,0,1-.626-.1q-2.691-2.446-5.4-4.869a2.758,2.758,0,0,0-3.606-.341c-.728.434-1.452.874-2.182,1.305a.943.943,0,0,1-1.413-.272,1.017,1.017,0,0,1,.477-1.417q1.824-.931,3.661-1.837a3.159,3.159,0,0,1,2.358-.164q1.75.51,3.5,1.007a4.726,4.726,0,0,0,.84.179,2.316,2.316,0,0,0,1.365-.3q5.826-3.095,11.672-6.154A.847.847,0,0,1,702.7,394.957Z" transform="translate(-175.149 -206.146)" fill="#124364"/>
    <path id="Path_10614" data-name="Path 10614" d="M598.641,441.641c-1.166.584-2.257,1.113-3.333,1.673a2.372,2.372,0,0,0-.736,3.668,2.263,2.263,0,0,0,2.871.469c.772-.44,1.528-.908,2.291-1.364a1.512,1.512,0,0,1,2.111.209q2.642,2.38,5.286,4.756a2.85,2.85,0,0,1,.211.2.74.74,0,0,1,.083,1,.826.826,0,0,1-1.009.182,2.071,2.071,0,0,1-.331-.24c-1.086-.9-2.175-1.8-3.25-2.711-.2-.168-.295-.162-.439.045-.2.279-.574.533-.582.806-.006.21.437.436.688.647q1.306,1.1,2.618,2.186c.464.388.555.767.273,1.124a.848.848,0,0,1-1.244.027q-1.665-1.372-3.312-2.766c-.212-.181-.334-.209-.5.039-.182.27-.562.515-.562.771s.435.438.683.647c.869.733,1.745,1.458,2.618,2.186a1.04,1.04,0,0,1,.4.5.665.665,0,0,1-.227.739.738.738,0,0,1-.884.051,7.4,7.4,0,0,1-1.877-1.574,2.385,2.385,0,0,0-1.533-.991c-.183-.026-.207-.109-.233-.261a2.046,2.046,0,0,0-1.706-1.758c-.219-.044-.314-.105-.349-.348a2,2,0,0,0-1.636-1.675.417.417,0,0,1-.408-.4,2.077,2.077,0,0,0-3.382-1.218,17.238,17.238,0,0,0-1.379,1.35c-.135.141-.211.2-.4.08-.542-.345-1.095-.673-1.651-.994-.178-.1-.2-.2-.139-.4q.851-2.932,1.672-5.873a.4.4,0,0,1,.348-.329c1.7-.348,3.376-.824,5.1-1.071a7.479,7.479,0,0,1,3.544.494C598.409,441.553,598.482,441.582,598.641,441.641Z" transform="translate(-92.219 -248.252)" fill="#124364"/>
    <path id="Path_10615" data-name="Path 10615" d="M668.076,287.824c0,.37-.01.74,0,1.109.009.243-.074.359-.328.345a2.328,2.328,0,0,1-.525-.069c-1.339-.385-2.664-.839-4.025-1.115a29.856,29.856,0,0,1-3.462-.974,9.075,9.075,0,0,0-4.929-.332c-.292.065-.349-.011-.313-.3a2.036,2.036,0,0,1,1.622-1.835c1.164-.3,2.329-.6,3.5-.875.235-.056.312-.143.3-.38-.017-.52-.019-1.041,0-1.561a.444.444,0,0,0-.27-.448,3.354,3.354,0,0,1-1.76-3.16,7.514,7.514,0,0,1,.163-2.2,3.41,3.41,0,0,1,2.721-2.321,3.355,3.355,0,0,1,3.408,1.713,3.63,3.63,0,0,1,.473,1.721,10.1,10.1,0,0,1-.041,1.845,3.314,3.314,0,0,1-1.7,2.392.5.5,0,0,0-.289.52c.02.506.017,1.014,0,1.52,0,.216.063.3.284.354,1.156.276,2.307.572,3.458.868a2.054,2.054,0,0,1,1.7,2.155C668.081,287.139,668.076,287.482,668.076,287.824Z" transform="translate(-153.373 -95.196)" fill="#124364"/>
    <path id="Path_10616" data-name="Path 10616" d="M819.618,288.27c0-.8.033-1.527-.009-2.245a3.253,3.253,0,0,0-.924-1.965c.712-.182,1.366-.362,2.026-.511.227-.051.322-.128.313-.374-.019-.534-.015-1.069,0-1.6a.378.378,0,0,0-.232-.381,3.424,3.424,0,0,1-1.812-3.3,7.531,7.531,0,0,1,.163-2.079,3.4,3.4,0,0,1,3.247-2.375,3.448,3.448,0,0,1,3.156,2.341,6.562,6.562,0,0,1,.085,3.291,3.113,3.113,0,0,1-1.614,2.078.493.493,0,0,0-.289.518c.021.492.019.987,0,1.48-.008.244.053.352.315.412.993.227,1.977.489,3.07.765Z" transform="translate(-303.598 -94.966)" fill="#124364"/>
    <path id="Path_10617" data-name="Path 10617" d="M573.776,284.221a3.544,3.544,0,0,0-.975,2.68c.006.158-.069.208-.212.238-.614.128-1.226.267-1.839.4,0-.389-.017-.767.006-1.142a.42.42,0,0,0-.26-.444c-1.089-.624-2.169-1.263-3.308-1.93.467-.121.872-.24,1.284-.327.187-.039.247-.115.244-.3q-.013-.842,0-1.684a.352.352,0,0,0-.205-.356,3.45,3.45,0,0,1-1.823-3.375,6.76,6.76,0,0,1,.174-2.033,3.24,3.24,0,0,1,2.688-2.3,3.273,3.273,0,0,1,3.4,1.635,3.652,3.652,0,0,1,.507,1.8,12.465,12.465,0,0,1-.038,1.763,3.262,3.262,0,0,1-1.713,2.467.492.492,0,0,0-.286.518,13.187,13.187,0,0,1,0,1.437c-.019.3.1.4.371.457C572.435,283.871,573.066,284.043,573.776,284.221Z" transform="translate(-73.042 -95.129)" fill="#124364"/>
    <path id="Path_10618" data-name="Path 10618" d="M641.806,248.332a5.12,5.12,0,0,0,1.059,3.673,4,4,0,0,0,.795.77.356.356,0,0,1,.18.376c-.028.18-.186.136-.292.163q-1.091.284-2.187.551a.615.615,0,0,1-.319.046c-.821-.211-1.645-.409-2.464-.625-.247-.065-.239-.308.019-.51a4.3,4.3,0,0,0,1.371-1.715,7.063,7.063,0,0,0,.081-5.128.665.665,0,0,1,.051-.637,7.316,7.316,0,0,1,5.384-3.65,7.439,7.439,0,0,1,7.588,3.735c.115.2.011.333-.037.5a7.009,7.009,0,0,0,.382,5.679,3.886,3.886,0,0,0,1.066,1.183c.136.1.254.2.222.4-.037.224-.236.151-.359.2-.23.085-.49.094-.711.194-1.439.648-2.8.12-4.182-.234-.1-.026-.169-.05-.184-.174-.022-.184.092-.265.213-.362a4.375,4.375,0,0,0,1.708-2.766,6.666,6.666,0,0,0-.692-4.883,4.673,4.673,0,0,0-5.177-2.028,4.758,4.758,0,0,0-3.512,4.365C641.792,247.745,641.806,248.047,641.806,248.332Z" transform="translate(-138.652 -65.803)" fill="#124364"/>
    <path id="Path_10619" data-name="Path 10619" d="M622.089,193.11c-.049-.043-.1-.089-.152-.131a3.2,3.2,0,0,0-.679-.525c-.94-.389-.966-1.346-1.352-2.078-.068-.128.042-.2.117-.276.611-.61,1.228-1.214,1.828-1.834.16-.165.269-.111.418-.011.467.311.946.6,1.406.924a.393.393,0,0,0,.51.018,9.877,9.877,0,0,1,3.162-1.316.444.444,0,0,0,.39-.431c.091-.525.222-1.043.322-1.567.042-.221.122-.321.373-.315q1.171.027,2.343,0c.255-.006.363.071.407.325.093.539.228,1.07.325,1.608a.4.4,0,0,0,.353.368,10.21,10.21,0,0,1,3.2,1.333.37.37,0,0,0,.475-.006c.462-.318.944-.606,1.4-.93.214-.151.339-.118.512.063.56.583,1.133,1.154,1.713,1.717.16.155.235.294.1.493a.2.2,0,0,0-.015.038,3.54,3.54,0,0,1-2.012,2.415c-.205.133-.235-.022-.3-.118a9.672,9.672,0,0,0-1.742-1.9,8.8,8.8,0,0,0-10.234-.65,9,9,0,0,0-2.617,2.514C622.27,192.932,622.222,193.054,622.089,193.11Z" transform="translate(-121.714 -14.573)" fill="#124364"/>
    <path id="Path_10620" data-name="Path 10620" d="M502.8,382.8q0-2.714,0-5.428c0-.466.189-.577.624-.362.122.06.239.133.357.2,1.358.792,2.714,1.589,4.078,2.371.232.133.317.247.244.533q-1.172,4.61-2.309,9.229c-.063.257-.153.278-.385.2q-1.139-.4-2.295-.76c-.26-.08-.321-.213-.319-.47C502.8,386.473,502.8,384.636,502.8,382.8Z" transform="translate(-14.584 -189.63)" fill="#124364"/>
    <path id="Path_10621" data-name="Path 10621" d="M552.558,429.217l.968-3.857c.435-1.735.88-3.468,1.3-5.207.076-.318.171-.3.393-.158.323.2.651.4.992.576.246.125.278.277.206.528q-1.218,4.23-2.415,8.466c-.066.232-.141.314-.385.21a7.5,7.5,0,0,0-.89-.3C552.571,429.427,552.5,429.37,552.558,429.217Z" transform="translate(-60.098 -228.964)" fill="#124364"/>
    <path id="Path_10622" data-name="Path 10622" d="M695.217,611.345a.759.759,0,0,1-.748-.4.643.643,0,0,1,.023-.735,8.194,8.194,0,0,1,1.444-1.438.687.687,0,0,1,.925.114.668.668,0,0,1,.092.9,9.164,9.164,0,0,1-1.434,1.451A.5.5,0,0,1,695.217,611.345Z" transform="translate(-189.857 -401.648)" fill="#124364"/>
    <path id="Path_10623" data-name="Path 10623" d="M624.346,536.929a.74.74,0,0,1,.734,1.086,5.973,5.973,0,0,1-1.523,1.522.639.639,0,0,1-.855-.142.659.659,0,0,1-.1-.893,8.451,8.451,0,0,1,1.469-1.471A.771.771,0,0,1,624.346,536.929Z" transform="translate(-124.076 -336.037)" fill="#124364"/>
    <path id="Path_10624" data-name="Path 10624" d="M673.172,585.516a.787.787,0,0,1-.209.521c-.4.413-.793.828-1.214,1.216a.758.758,0,0,1-1.068-.01.735.735,0,0,1,.018-1.067c.38-.41.782-.8,1.184-1.188a.729.729,0,0,1,.833-.149A.752.752,0,0,1,673.172,585.516Z" transform="translate(-167.987 -379.808)" fill="#124364"/>
    <path id="Path_10625" data-name="Path 10625" d="M649.256,561.6a.748.748,0,0,1-.262.536c-.352.362-.706.723-1.07,1.072a.765.765,0,1,1-1.075-1.072q.551-.577,1.132-1.125a.722.722,0,0,1,.836-.137A.735.735,0,0,1,649.256,561.6Z" transform="translate(-146.117 -357.877)" fill="#124364"/>
    <path id="Path_10626" data-name="Path 10626" d="M730.554,630.405c-.551.04-.79-.292-1.076-.535-.118-.1.014-.165.071-.227a3.7,3.7,0,0,1,.482-.5c.156-.117.117-.5.409-.383a1.147,1.147,0,0,1,.731,1.078.652.652,0,0,1-.646.571Z" transform="translate(-221.939 -420.035)" fill="#124364"/>
  </g>
</svg>
