<svg xmlns="http://www.w3.org/2000/svg" xmlns:xlink="http://www.w3.org/1999/xlink" width="644.999" height="434" viewBox="0 0 644.999 434">
  <defs>
    <clipPath id="clip-path">
      <rect id="Rectangle_1668" data-name="Rectangle 1668" width="192.122" height="205.949" transform="translate(-1163 -465)" fill="#fff" stroke="#707070" stroke-width="1"/>
    </clipPath>
    <linearGradient id="linear-gradient" x1="1.259" y1="-34.921" x2="-0.405" y2="42.706" gradientUnits="objectBoundingBox">
      <stop offset="0" stop-color="#62b34f"/>
      <stop offset="0.46" stop-color="#51bab4"/>
      <stop offset="1" stop-color="#0094d3"/>
    </linearGradient>
    <linearGradient id="linear-gradient-2" x1="1.476" y1="-35.976" x2="-0.601" y2="41.651" xlink:href="#linear-gradient"/>
    <linearGradient id="linear-gradient-3" x1="1.971" y1="-37.802" x2="-1.01" y2="39.825" xlink:href="#linear-gradient"/>
    <linearGradient id="linear-gradient-4" x1="4.337" y1="-41.071" x2="-2.828" y2="36.556" xlink:href="#linear-gradient"/>
    <linearGradient id="linear-gradient-5" x1="1.023" y1="-0.141" x2="-0.048" y2="1.172" xlink:href="#linear-gradient"/>
    <linearGradient id="linear-gradient-6" x1="1.059" y1="-0.185" x2="-0.046" y2="1.169" xlink:href="#linear-gradient"/>
    <linearGradient id="linear-gradient-7" x1="1.098" y1="-0.232" x2="-0.048" y2="1.171" xlink:href="#linear-gradient"/>
    <linearGradient id="linear-gradient-8" x1="1.141" y1="-0.283" x2="-0.054" y2="1.177" xlink:href="#linear-gradient"/>
    <linearGradient id="linear-gradient-9" x1="1.19" y1="-0.338" x2="-0.067" y2="1.189" xlink:href="#linear-gradient"/>
    <linearGradient id="linear-gradient-10" x1="1.247" y1="-0.408" x2="-0.09" y2="1.217" xlink:href="#linear-gradient"/>
    <linearGradient id="linear-gradient-11" x1="1.315" y1="-0.468" x2="-0.112" y2="1.242" xlink:href="#linear-gradient"/>
    <linearGradient id="linear-gradient-12" x1="1.409" y1="-0.57" x2="-0.145" y2="1.282" xlink:href="#linear-gradient"/>
    <linearGradient id="linear-gradient-13" x1="1.266" y1="-0.434" x2="-0.431" y2="1.594" xlink:href="#linear-gradient"/>
    <linearGradient id="linear-gradient-14" x1="1.175" y1="-0.323" x2="-0.328" y2="1.484" xlink:href="#linear-gradient"/>
    <linearGradient id="linear-gradient-15" x1="1.111" y1="-0.244" x2="-0.249" y2="1.398" xlink:href="#linear-gradient"/>
    <linearGradient id="linear-gradient-16" x1="1.06" y1="-0.186" x2="-0.184" y2="1.333" xlink:href="#linear-gradient"/>
    <linearGradient id="linear-gradient-17" x1="1.033" y1="-0.151" x2="-0.14" y2="1.282" xlink:href="#linear-gradient"/>
    <linearGradient id="linear-gradient-18" x1="1.001" y1="-0.113" x2="-0.106" y2="1.242" xlink:href="#linear-gradient"/>
    <linearGradient id="linear-gradient-19" x1="0.979" y1="-0.089" x2="-0.08" y2="1.213" xlink:href="#linear-gradient"/>
    <linearGradient id="linear-gradient-20" x1="0.964" y1="-0.07" x2="-0.062" y2="1.192" xlink:href="#linear-gradient"/>
    <linearGradient id="linear-gradient-21" x1="0.989" y1="-0.101" x2="-0.053" y2="1.18" xlink:href="#linear-gradient"/>
    <linearGradient id="linear-gradient-22" x1="1.387" y1="-46.738" x2="-0.071" y2="30.889" xlink:href="#linear-gradient"/>
    <linearGradient id="linear-gradient-23" x1="1.602" y1="-48.952" x2="-0.128" y2="28.675" xlink:href="#linear-gradient"/>
    <linearGradient id="linear-gradient-24" x1="3.004" y1="-48.881" x2="-0.933" y2="28.746" xlink:href="#linear-gradient"/>
  </defs>
  <g id="Group_4969" data-name="Group 4969" transform="translate(-721.001 -5914)">
    <path id="Rectangle_1670" data-name="Rectangle 1670" d="M217,0H539a0,0,0,0,1,0,0V434a0,0,0,0,1,0,0H217A217,217,0,0,1,0,217v0A217,217,0,0,1,217,0Z" transform="translate(767 5914)" fill="#e8f1f2"/>
    <path id="Rectangle_1669" data-name="Rectangle 1669" d="M217,0H539a0,0,0,0,1,0,0V434a0,0,0,0,1,0,0H217A217,217,0,0,1,0,217v0A217,217,0,0,1,217,0Z" transform="translate(827 5914)" fill="#f8fbfb"/>
    <g id="Group_3992" data-name="Group 3992" transform="translate(958.328 6184.73)">
      <g id="Group_3976" data-name="Group 3976" transform="translate(2.786 37.762)">
        <path id="Path_5143" data-name="Path 5143" d="M17.574,47.09H15.416a1.4,1.4,0,0,1-.768-1.212.681.681,0,0,1,.733-.774c.468,0,.8.312.883.883h1.189c-.11-1.432-.9-2.182-2.09-2.182a1.824,1.824,0,0,0-1.963,1.94,1.928,1.928,0,0,0,.525,1.345H13.17v1.3h4.4Z" transform="translate(-7.176 -41.133)" fill="#182f43"/>
        <path id="Path_5144" data-name="Path 5144" d="M16.954,50.187c0,.993-.4,1.807-1.7,1.807H7.528a2.119,2.119,0,0,1-2.222-2.228v-3.3H2.788v3.3a4.618,4.618,0,0,0,4.739,4.762h8.659a3.21,3.21,0,0,0,3.285-3.285V39.19H16.954Z" transform="translate(-2.786 -39.184)" fill="#182f43"/>
        <path id="Path_5145" data-name="Path 5145" d="M36.595,58.247a2.13,2.13,0,0,1-2.228,2.222H33.31V63h1.079a4.658,4.658,0,0,0,4.762-4.757V47.36H36.595Z" transform="translate(-15.69 -42.638)" fill="#182f43"/>
        <path id="Path_5146" data-name="Path 5146" d="M90.475,68.808a1.524,1.524,0,1,0,1.4.732A1.524,1.524,0,0,0,90.475,68.808Z" transform="translate(-39.173 -51.704)" fill="#182f43"/>
        <path id="Path_5147" data-name="Path 5147" d="M83.695,51a.924.924,0,0,1-.924.993H79.885c-.462-.063-.987-.133-2.246-2.973-2.2-4.745-5.68-6.592-9.646-5.138v2.309c3.3-1.281,5.265,0,6.869,3.129a17.648,17.648,0,0,0,1.414,2.644H66.464a1.357,1.357,0,0,1-1.408-1.432V48.087a4.733,4.733,0,0,0-4.826-4.843h-.242a4.733,4.733,0,0,0-4.826,4.843v2.471a1.357,1.357,0,0,1-1.408,1.432h-1.8A.924.924,0,0,1,51.034,51V39.186H48.5v12.7a2.609,2.609,0,0,0,2.644,2.644h2.621a3.562,3.562,0,0,0,2.886-1.391,5.7,5.7,0,0,0,3.683,1.316A4.22,4.22,0,0,0,63.5,53a3.464,3.464,0,0,0,2.956,1.524H83.591a2.592,2.592,0,0,0,2.621-2.644V39.18H83.677ZM62.533,49.611a2.257,2.257,0,0,1-2.182,2.309,3.261,3.261,0,0,1-2.644-1.212V48.087a2.188,2.188,0,0,1,2.309-2.309h.242a2.188,2.188,0,0,1,2.309,2.309Z" transform="translate(-22.111 -39.18)" fill="#182f43"/>
      </g>
      <g id="Group_3975" data-name="Group 3975" transform="translate(75.14 37)">
        <path id="Path_5148" data-name="Path 5148" d="M133.2,46.249h-.242a4.716,4.716,0,0,0-4.826,4.826v1.564a4.785,4.785,0,0,0,4.67,4.849h2.667v.4c0,1.784-1.345,2.753-5.709,1.98v2.361C135.114,63.48,138,61.587,138,58.5V51.075a4.7,4.7,0,0,0-4.8-4.826Zm2.269,8.7h-2.644a2.309,2.309,0,0,1-2.159-2.309v-1.57a2.188,2.188,0,0,1,2.309-2.309h.242a2.17,2.17,0,0,1,2.269,2.309Z" transform="translate(-128.128 -41.406)" fill="#182f43"/>
        <path id="Path_5149" data-name="Path 5149" d="M160.961,40.919a1.53,1.53,0,1,0-1.423-.939A1.536,1.536,0,0,0,160.961,40.919Z" transform="translate(-141.357 -37.86)" fill="#182f43"/>
        <path id="Path_5150" data-name="Path 5150" d="M168.458,40.936a1.518,1.518,0,0,0,0-3.036,1.553,1.553,0,0,0-1.518,1.518A1.536,1.536,0,0,0,168.458,40.936Z" transform="translate(-144.536 -37.877)" fill="#182f43"/>
        <path id="Path_5151" data-name="Path 5151" d="M183.21,70.07a1.535,1.535,0,1,0,1.541,1.518A1.553,1.553,0,0,0,183.21,70.07Z" transform="translate(-150.767 -51.477)" fill="#182f43"/>
        <path id="Path_5152" data-name="Path 5152" d="M200.644,69.38a1.535,1.535,0,1,0,1.441,1.533A1.535,1.535,0,0,0,200.644,69.38Z" transform="translate(-158.175 -51.185)" fill="#182f43"/>
        <path id="Path_5153" data-name="Path 5153" d="M183.654,54.855v-7.8h-2.546v6.927a.929.929,0,0,1-.924.993h-4.578c-1.282,0-1.7-.814-1.7-1.807v-.375a5.677,5.677,0,0,0,0-.618v-5.1h-2.557v6.148a1.52,1.52,0,0,1-1.674,1.732h-1.761a1.362,1.362,0,0,1-1.432-1.432v-7.3h-5a4.71,4.71,0,0,0-4.8,4.843v1.524a4.78,4.78,0,0,0,4.693,4.843,4.358,4.358,0,0,0,3.435-1.408,3.96,3.96,0,0,0,3.152,1.478h1.732a3.752,3.752,0,0,0,2.973-1.235,3.666,3.666,0,0,0,2.621,1.235h5.726a2.609,2.609,0,0,0,2.644-2.644Zm-19.627-1.189a3.215,3.215,0,0,1-2.621,1.212,2.222,2.222,0,0,1-2.159-2.309V51.062a2.17,2.17,0,0,1,2.269-2.309h2.511Z" transform="translate(-140.197 -41.393)" fill="#182f43"/>
        <path id="Path_5154" data-name="Path 5154" d="M193.027,69.378a1.535,1.535,0,1,0,1.441,1.533A1.535,1.535,0,0,0,193.027,69.378Z" transform="translate(-154.875 -51.183)" fill="#182f43"/>
        <path id="Path_5155" data-name="Path 5155" d="M238.651,41.759a1.53,1.53,0,1,0-1.541-1.541A1.53,1.53,0,0,0,238.651,41.759Z" transform="translate(-174.2 -38.215)" fill="#182f43"/>
        <path id="Path_5156" data-name="Path 5156" d="M235.709,51a.924.924,0,0,1-.952.993h-2.482V50.044c0-4.514-1.87-6.633-5.617-6.633-2.448,0-4.56,1.674-6.28,3.637V44.52h-2.534v7.47h-3.5V43.908h-2.557V54.789a2.113,2.113,0,0,1-2.205,2.222h-1.1v2.534h1.1a4.658,4.658,0,0,0,4.762-4.757v-.266h21.272a2.6,2.6,0,0,0,2.6-2.644V39.18h-2.534Zm-5.876.993h-9.455V49.467c1.963-2.309,3.966-3.527,5.969-3.527s3.464,1.189,3.464,4.122Z" transform="translate(-162.097 -38.418)" fill="#182f43"/>
      </g>
      <g id="Group_3974" data-name="Group 3974" transform="translate(159.516 37.301)">
        <path id="Path_5157" data-name="Path 5157" d="M279.367,46.249h-.242a4.716,4.716,0,0,0-4.826,4.826v1.564a4.785,4.785,0,0,0,4.676,4.849h2.655v.4c0,1.784-1.339,2.753-5.7,1.98v2.361c5.351,1.253,8.237-.641,8.237-3.729V51.075a4.7,4.7,0,0,0-4.8-4.826Zm2.263,8.7h-2.644a2.309,2.309,0,0,1-2.159-2.309v-1.57a2.188,2.188,0,0,1,2.309-2.309h.242a2.17,2.17,0,0,1,2.269,2.309Z" transform="translate(-274.298 -41.706)" fill="#182f43"/>
        <path id="Path_5158" data-name="Path 5158" d="M314.614,41.455a1.535,1.535,0,1,0-1.441-1.533A1.535,1.535,0,0,0,314.614,41.455Z" transform="translate(-290.732 -38.384)" fill="#182f43"/>
        <path id="Path_5159" data-name="Path 5159" d="M307.061,41.451a1.541,1.541,0,1,0-1.1-.458,1.535,1.535,0,0,0,1.1.458Z" transform="translate(-287.497 -38.38)" fill="#182f43"/>
        <path id="Path_5160" data-name="Path 5160" d="M307.758,46.22h-.352a4.7,4.7,0,0,0-4.716,4.693v1.87a4.664,4.664,0,0,0,4.716,4.693h.548a4.508,4.508,0,0,0,4.5-4.537V50.913a4.681,4.681,0,0,0-4.693-4.693Zm2.159,6.829a1.888,1.888,0,0,1-1.853,1.893h-.641a2.182,2.182,0,0,1-2.159-2.182V50.913a2.1,2.1,0,0,1,2.159-2.159h.352a2.1,2.1,0,0,1,2.159,2.159Z" transform="translate(-286.3 -41.694)" fill="#182f43"/>
        <path id="Path_5161" data-name="Path 5161" d="M365.068,41.641A1.535,1.535,0,1,0,363.55,40.1,1.535,1.535,0,0,0,365.068,41.641Z" transform="translate(-312.029 -38.46)" fill="#182f43"/>
        <path id="Path_5162" data-name="Path 5162" d="M368.081,51a.924.924,0,0,1-.929.993h-2.973V43.908h-2.551V54.789a2.113,2.113,0,0,1-2.205,2.222h-1.1v2.534h1.1a4.658,4.658,0,0,0,4.757-4.757v-.266h3.81a2.6,2.6,0,0,0,2.627-2.644V39.18h-2.534Z" transform="translate(-309.818 -38.718)" fill="#182f43"/>
      </g>
      <g id="Group_3972" data-name="Group 3972" transform="translate(2.788 35.827)">
        <path id="Path_5163" data-name="Path 5163" d="M405.691,40.919a1.53,1.53,0,1,0-1.423-.939,1.535,1.535,0,0,0,1.423.939Z" transform="translate(-172.465 -36.686)" fill="#182f43"/>
        <path id="Path_5164" data-name="Path 5164" d="M413.188,40.936a1.518,1.518,0,0,0,0-3.036,1.553,1.553,0,0,0-1.518,1.518A1.535,1.535,0,0,0,413.188,40.936Z" transform="translate(-175.644 -36.703)" fill="#182f43"/>
        <path id="Path_5165" data-name="Path 5165" d="M428.613,39.292H426.3a1.449,1.449,0,0,1-.791-1.258.71.71,0,0,1,.745-.814.947.947,0,0,1,.929.924h1.3a2.163,2.163,0,0,0-2.246-2.309,1.928,1.928,0,0,0-2.1,2.067,2.084,2.084,0,0,0,.531,1.414h-.8v1.432H428.6Z" transform="translate(-180.806 -35.827)" fill="#182f43"/>
        <path id="Path_5166" data-name="Path 5166" d="M437.666,69.31a1.53,1.53,0,1,0,1.524,1.518,1.553,1.553,0,0,0-1.524-1.518Z" transform="translate(-185.984 -49.982)" fill="#182f43"/>
        <path id="Path_5167" data-name="Path 5167" d="M445.145,69.31a1.53,1.53,0,1,0,1.524,1.518A1.53,1.53,0,0,0,445.145,69.31Z" transform="translate(-189.146 -49.982)" fill="#182f43"/>
        <path id="Path_5168" data-name="Path 5168" d="M435.632,46.527v1.282a3.96,3.96,0,0,0-3.042,3.856v1.154a3.059,3.059,0,0,0,.774,2.049h-4.826c-1.276,0-1.7-.814-1.7-1.807v-.375a5.666,5.666,0,0,0,0-.618v-5.08h-2.551v6.148a1.517,1.517,0,0,1-1.674,1.732h-2.707c-1.3,0-1.7-.814-1.7-1.807V46.989h-2.534v6.084c0,.993-.352,1.807-1.674,1.807h-1.264a1.362,1.362,0,0,1-1.432-1.432V46.135h-5.045a4.71,4.71,0,0,0-4.8,4.843V52.5a4.78,4.78,0,0,0,4.693,4.843,4.358,4.358,0,0,0,3.435-1.408,3.96,3.96,0,0,0,3.152,1.478h1.3a3.758,3.758,0,0,0,2.973-1.235,3.608,3.608,0,0,0,2.6,1.235h3.019a3.758,3.758,0,0,0,2.973-1.235,3.654,3.654,0,0,0,2.621,1.235h14.12a4.733,4.733,0,0,0,4.739-4.739V51.157C446.981,47.543,442.484,44.853,435.632,46.527Zm-26.871,7.054a3.215,3.215,0,0,1-2.621,1.212,2.222,2.222,0,0,1-2.159-2.309V50.978a2.171,2.171,0,0,1,2.269-2.309h2.511Zm30.265,1.3h-2.205a2.2,2.2,0,0,1-2.072-2.119V51.78a2.14,2.14,0,1,1,4.278,0Zm3.238,0h-1.079V51.838a3.267,3.267,0,0,0-2.58-3.394c3.331-.329,5.842.97,5.905,2.713v1.455a2.269,2.269,0,0,1-2.246,2.269Z" transform="translate(-171.326 -40.135)" fill="#182f43"/>
        <path id="Path_5169" data-name="Path 5169" d="M342.624,50.3a4.2,4.2,0,0,1-4.191,4.2H327a2.6,2.6,0,0,1-2.638-2.638v-12.7h2.528V50.989a.924.924,0,0,0,.935.987h10.454a1.87,1.87,0,0,0,1.83-2.009c0-1.385-1.039-2.09-2.424-2.09h-6.6l-.485-1.888,3.879-6.84,2.378.906-3.019,5.282h3.873a4.907,4.907,0,0,1,4.918,4.964Z" transform="translate(-138.733 -37.232)" fill="#182f43"/>
        <path id="Path_5170" data-name="Path 5170" d="M12.066,96.773v2.009H2.79V97.171l6-8.89H3.154V86.29h8.659v1.628L5.855,96.773Z" transform="translate(-2.79 -57.16)" fill="#182f43"/>
        <path id="Path_5171" data-name="Path 5171" d="M22.808,93.441l-.387-1.478c2.979-1.241,7.019-1.333,7.019,2.586v6.28H27.207V99.675a3.868,3.868,0,0,1-2.886,1.281,2.361,2.361,0,0,1-2.465-2.523c0-2.078,2.026-3.5,5.386-3.36v-.491C27.224,92.384,24.9,92.638,22.808,93.441ZM23.9,98.174c0,.745.606,1.114,1.351,1.114a2.73,2.73,0,0,0,1.974-.86V96.344C24.961,96.107,23.9,97.3,23.9,98.174Z" transform="translate(-10.848 -59.236)" fill="#182f43"/>
        <path id="Path_5172" data-name="Path 5172" d="M55.848,93.441l-.387-1.478c2.956-1.241,7-1.333,7,2.586v6.28H60.247V99.675a3.868,3.868,0,0,1-2.886,1.281A2.361,2.361,0,0,1,54.9,98.434c0-2.078,2.026-3.5,5.386-3.36v-.491C60.264,92.384,57.944,92.638,55.848,93.441Zm1.091,4.733c0,.745.606,1.114,1.351,1.114a2.73,2.73,0,0,0,1.974-.86V96.344C58,96.107,56.939,97.3,56.939,98.174Z" transform="translate(-24.815 -59.236)" fill="#182f43"/>
        <path id="Path_5173" data-name="Path 5173" d="M74.127,96.923a.843.843,0,0,0,.929.935,3.707,3.707,0,0,0,.825-.092v1.593a11.544,11.544,0,0,1-1.732.144c-1.7,0-2.246-.877-2.246-2.372V91.993H70.75l.294-1.662h.872V88.1l2.211-.543v2.771h1.865L75.7,91.993h-1.57Z" transform="translate(-31.52 -57.697)" fill="#182f43"/>
        <path id="Path_5174" data-name="Path 5174" d="M84.483,109.776H83.15a25.931,25.931,0,0,0,.727-3.948l.04-.658h1.639l-.069.641A19.719,19.719,0,0,1,84.483,109.776Z" transform="translate(-36.762 -65.141)" fill="#182f43"/>
        <path id="Path_5175" data-name="Path 5175" d="M98.314,88.282v10.5H95.907v-10.5H92.49V86.29h9.236v1.992Z" transform="translate(-40.711 -57.16)" fill="#182f43"/>
        <path id="Path_5176" data-name="Path 5176" d="M112.608,93.44l-.387-1.478c2.961-1.241,7-1.333,7,2.575v6.28h-2.211V99.663a3.868,3.868,0,0,1-2.886,1.282,2.361,2.361,0,0,1-2.465-2.523c0-2.078,2.026-3.5,5.386-3.36v-.491C117.047,92.384,114.738,92.638,112.608,93.44Zm1.1,4.733c0,.745.577,1.114,1.351,1.114a2.713,2.713,0,0,0,1.968-.86V96.344C114.738,96.107,113.705,97.3,113.705,98.174Z" transform="translate(-48.811 -59.236)" fill="#182f43"/>
        <path id="Path_5177" data-name="Path 5177" d="M130.6,92l1.3,1.957.745,1.368h0l.791-1.4L134.71,92h2.309l-2.99,4.5,3.083,4.71h-2.65l-1.287-1.951-.768-1.4h0l-.768,1.42L130.4,101.2H127.95l3.106-4.71L127.979,92Z" transform="translate(-55.701 -59.574)" fill="#182f43"/>
        <path id="Path_5178" data-name="Path 5178" d="M154.548,93.44l-.381-1.478c2.956-1.241,6.99-1.333,6.99,2.575v6.28h-2.211V99.663a3.856,3.856,0,0,1-2.886,1.282,2.361,2.361,0,0,1-2.465-2.523c0-2.078,2.026-3.5,5.386-3.36v-.491C158.97,92.384,156.649,92.638,154.548,93.44Zm1.1,4.733c0,.745.577,1.114,1.351,1.114a2.73,2.73,0,0,0,1.974-.86V96.344C156.713,96.107,155.645,97.3,155.645,98.174Z" transform="translate(-66.541 -59.236)" fill="#182f43"/>
        <path id="Path_5179" data-name="Path 5179" d="M170.82,101.024V91.869h2.205v.843a4.791,4.791,0,0,1,3-1.022c1.824,0,2.759,1.056,2.759,2.973v6.35h-2.211V95.384c0-1-.456-1.57-1.5-1.57a3.579,3.579,0,0,0-2.049.837V101Z" transform="translate(-73.825 -59.443)" fill="#182f43"/>
        <path id="Path_5180" data-name="Path 5180" d="M191.819,98.836c-2.407,0-3.539-2.049-3.539-4.785s1.241-4.785,3.666-4.785a3.25,3.25,0,0,1,2.378,1.039V86.16h2.188V98.686h-2.188V97.74a3.463,3.463,0,0,1-2.505,1.1Zm.8-7.781c-1.293,0-2.043,1.079-2.043,3s.75,3,2.043,3a2.753,2.753,0,0,0,1.7-.623V91.679A2.886,2.886,0,0,0,192.621,91.055Z" transform="translate(-81.206 -57.105)" fill="#182f43"/>
        <path id="Path_5181" data-name="Path 5181" d="M219.16,98.838c-3.995,0-5.64-2.609-5.64-6.425S215.165,86,219.16,86a10.189,10.189,0,0,1,4.22.952v1.841a13.958,13.958,0,0,0-3.96-.8c-2.309,0-3.492,1.5-3.492,4.439s1.206,4.416,3.492,4.416a13.8,13.8,0,0,0,3.96-.785v1.847a10.275,10.275,0,0,1-4.22.929Z" transform="translate(-91.876 -57.037)" fill="#182f43"/>
        <path id="Path_5182" data-name="Path 5182" d="M242.61,92v9.236H240.4v-.895a4.664,4.664,0,0,1-3,1.074c-1.841,0-2.753-1.074-2.753-2.973V92h2.211v5.68c0,1,.456,1.57,1.5,1.57a3.683,3.683,0,0,0,2.043-.837V92Z" transform="translate(-100.809 -59.574)" fill="#182f43"/>
        <path id="Path_5183" data-name="Path 5183" d="M252.08,100.236V98.591a8.116,8.116,0,0,0,3.175.768c1.368,0,1.732-.658,1.732-1.114,0-.727-.877-1-1.882-1.368-1.3-.439-2.852-1.022-2.852-2.846S253.65,91,256.242,91a6.925,6.925,0,0,1,3.122.744v1.629a5.143,5.143,0,0,0-2.54-.733c-1.443,0-2.043.658-2.043,1.206,0,.768.987,1.056,2.084,1.46,1.276.456,2.7,1.056,2.7,2.7,0,1.916-1.628,3.013-3.856,3.013A8.872,8.872,0,0,1,252.08,100.236Z" transform="translate(-108.177 -59.151)" fill="#182f43"/>
        <path id="Path_5184" data-name="Path 5184" d="M270.447,96.923a.843.843,0,0,0,.935.935,3.648,3.648,0,0,0,.82-.092v1.593a11.51,11.51,0,0,1-1.732.144c-1.7,0-2.246-.877-2.246-2.373V91.993H267.07l.294-1.662h.877V88.1l2.205-.543v2.771h1.865l-.294,1.662h-1.57Z" transform="translate(-114.514 -57.697)" fill="#182f43"/>
        <path id="Path_5185" data-name="Path 5185" d="M278.71,96.325c0-2.7,1.351-4.785,4.295-4.785s4.289,2.084,4.289,4.785-1.351,4.785-4.289,4.785S278.71,99.027,278.71,96.325Zm2.043,0c0,1.789.716,3.192,2.251,3.192s2.205-1.4,2.205-3.192-.675-3.2-2.205-3.2S280.753,94.536,280.753,96.325Z" transform="translate(-119.435 -59.379)" fill="#182f43"/>
        <path id="Path_5186" data-name="Path 5186" d="M310.914,94.643v6.35H308.7V95.376c0-1-.456-1.57-1.5-1.57a3.464,3.464,0,0,0-2.009.86,4.084,4.084,0,0,1,.04.71v5.64h-2.194v-5.64c0-1-.456-1.57-1.5-1.57a3.342,3.342,0,0,0-1.974.837v6.35H297.36V91.86h2.205v1.212a3.948,3.948,0,0,1,2.921-1.4,2.332,2.332,0,0,1,2.448,1.512,4.5,4.5,0,0,1,3.215-1.512C310,91.67,310.914,92.726,310.914,94.643Z" transform="translate(-127.319 -59.434)" fill="#182f43"/>
        <path id="Path_5187" data-name="Path 5187" d="M324.48,100.236V98.591a8.162,8.162,0,0,0,3.181.768c1.368,0,1.732-.658,1.732-1.114,0-.727-.877-1-1.882-1.368-1.293-.439-2.846-1.022-2.846-2.846S326.05,91,328.648,91a6.881,6.881,0,0,1,3.117.745v1.628a5.126,5.126,0,0,0-2.534-.733c-1.443,0-2.049.658-2.049,1.206,0,.768.987,1.056,2.084,1.46,1.276.456,2.7,1.056,2.7,2.7,0,1.916-1.622,3.013-3.85,3.013A8.878,8.878,0,0,1,324.48,100.236Z" transform="translate(-138.784 -59.151)" fill="#182f43"/>
        <path id="Path_5188" data-name="Path 5188" d="M350.342,95.7l-.964,3.013H347l4.653-12.584h1.974l4.508,12.584h-2.448l-.981-3.013Zm.439-1.789h3.527l-1.732-5.259Z" transform="translate(-148.305 -57.092)" fill="#182f43"/>
        <path id="Path_5189" data-name="Path 5189" d="M377.36,92v9.236h-2.211v-.895a4.658,4.658,0,0,1-2.99,1.074c-1.847,0-2.759-1.074-2.759-2.973V92h2.211v5.68c0,1,.456,1.57,1.5,1.57a3.683,3.683,0,0,0,2.043-.837V92Z" transform="translate(-157.774 -59.574)" fill="#182f43"/>
        <path id="Path_5190" data-name="Path 5190" d="M389.323,96.923a.837.837,0,0,0,.929.935,3.648,3.648,0,0,0,.82-.092v1.593a11.511,11.511,0,0,1-1.732.144c-1.7,0-2.246-.877-2.246-2.373V91.993H385.94l.294-1.662h.895V88.1l2.211-.543v2.771h1.83l-.289,1.662h-1.559Z" transform="translate(-164.766 -57.697)" fill="#182f43"/>
        <path id="Path_5191" data-name="Path 5191" d="M405.86,92.368v6.35h-2.211V93.1c0-1.022-.473-1.535-1.351-1.553a3.816,3.816,0,0,0-2.188.82v6.35H397.9V86.29h2.211v4.041a4.8,4.8,0,0,1,2.777-1.039A2.783,2.783,0,0,1,405.86,92.368Z" transform="translate(-169.823 -57.16)" fill="#182f43"/>
        <path id="Path_5192" data-name="Path 5192" d="M415.36,96.325c0-2.7,1.351-4.785,4.295-4.785s4.289,2.084,4.289,4.785-1.351,4.785-4.289,4.785S415.36,99.027,415.36,96.325Zm2.043,0c0,1.789.716,3.192,2.251,3.192s2.205-1.4,2.205-3.192-.675-3.2-2.205-3.2S417.4,94.536,417.4,96.325Z" transform="translate(-177.204 -59.379)" fill="#182f43"/>
        <path id="Path_5193" data-name="Path 5193" d="M434,101.154V92h2.205V93.73A3.464,3.464,0,0,1,439.328,92V93.73a3.353,3.353,0,0,0-3.106,1.68v5.773Z" transform="translate(-185.084 -59.572)" fill="#182f43"/>
        <path id="Path_5194" data-name="Path 5194" d="M445.89,87.725a1.155,1.155,0,1,1,1.155,1.154A1.155,1.155,0,0,1,445.89,87.725Zm2.28,11.135h-2.217V89.935h2.211Z" transform="translate(-190.11 -57.278)" fill="#182f43"/>
        <path id="Path_5195" data-name="Path 5195" d="M457.047,96.923a.837.837,0,0,0,.929.935,3.747,3.747,0,0,0,.825-.092v1.593a11.545,11.545,0,0,1-1.732.144c-1.7,0-2.246-.877-2.246-2.372V91.993H453.67l.289-1.662h.877V88.1l2.211-.543v2.771h1.865l-.294,1.662h-1.57Z" transform="translate(-193.399 -57.697)" fill="#182f43"/>
        <path id="Path_5196" data-name="Path 5196" d="M473.809,92l-4.439,12.492h-2.1l.935-2.65-3.654-9.813h2.482l2.176,7.123h0L471.431,92Z" transform="translate(-197.999 -59.574)" fill="#182f43"/>
        <path id="Path_5197" data-name="Path 5197" d="M46.722,98.736H44.13L41.215,94.51v4.225H39.01V86.29h2.205v7.089l2.753-4.012h2.476l-3.3,4.439Z" transform="translate(-18.102 -57.16)" fill="#182f43"/>
      </g>
    </g>
    <g id="Mask_Group_55" data-name="Mask Group 55" transform="translate(2166.113 6461)" clip-path="url(#clip-path)">
      <g id="header_logo" transform="translate(-1640.394 -451.753)">
        <rect id="Rectangle_1657" data-name="Rectangle 1657" width="5.613" height="33.96" transform="translate(0 38.322)" fill="#e6e6e6"/>
        <rect id="Rectangle_1658" data-name="Rectangle 1658" width="5.613" height="33.96" transform="translate(186.896 38.322)" fill="#e6e6e6"/>
        <rect id="Rectangle_1659" data-name="Rectangle 1659" width="5.613" height="33.96" transform="translate(339.793 38.322)" fill="#e6e6e6"/>
        <rect id="Rectangle_1660" data-name="Rectangle 1660" width="85.067" height="1.611" transform="matrix(0.826, -0.563, 0.563, 0.826, 499.308, 47.925)" fill="url(#linear-gradient)"/>
        <rect id="Rectangle_1661" data-name="Rectangle 1661" width="68.163" height="1.611" transform="translate(499.39 39.255) rotate(-34.28)" fill="url(#linear-gradient-2)"/>
        <rect id="Rectangle_1662" data-name="Rectangle 1662" width="47.475" height="1.611" transform="translate(499.422 30.495) rotate(-34.37)" fill="url(#linear-gradient-3)"/>
        <rect id="Rectangle_1663" data-name="Rectangle 1663" width="19.755" height="1.611" transform="matrix(0.823, -0.568, 0.568, 0.823, 499.479, 21.781)" fill="url(#linear-gradient-4)"/>
        <g id="Group_3973" data-name="Group 3973" transform="translate(499.122 0.385)">
          <path id="Path_5198" data-name="Path 5198" d="M613.133,63.311l-.013-.013-11.393,7.774.013.013-58.612,39.957,1.215,1.777-7.966,5.562.626.9L520.05,131.1l.921,1.33,18.706-13.067h0l6.176-4.322h0l59.533-40.6-1.227-1.79,10.485-7.147-.6-.869L652.285,38.57l-.908-1.33Z" transform="translate(-506.497 -1.797)" fill="url(#linear-gradient-5)"/>
          <path id="Path_5199" data-name="Path 5199" d="M615.482,67.873v-.013l-12.2,8.311.013.013-56.72,38.678,1.2,1.764-8.528,5.946.6.857L523.23,135.065l.933,1.317,16.609-11.623.013.013,8.5-5.933.013.013,56.911-38.806-1.227-1.777,12.006-8.183-.6-.882L651.348,45.37l-.908-1.33Z" transform="translate(-505.611 0.098)" fill="url(#linear-gradient-6)"/>
          <path id="Path_5200" data-name="Path 5200" d="M617.6,72.523l-.013-.013L607.5,79.389V79.4l-57.9,39.471,1.2,1.764L543,126.1l.6.857L526.81,138.717l.921,1.317,16.788-11.763.013.026,7.787-5.434.013.013,57.922-39.5L609.038,81.6,619.1,74.735l-.588-.882L650.3,52.18l-.908-1.33Z" transform="translate(-504.613 1.995)" fill="url(#linear-gradient-7)"/>
          <path id="Path_5201" data-name="Path 5201" d="M621.269,76.047v-.013l-10.011,6.815.013.026-58.548,39.74,1.24,1.816-9.986,6.968.614.882-13.86,9.692.933,1.317,15.829-11.06v-.013l10.638-7.429,56.374-38.269-1.215-1.8,9.487-6.47-.6-.869L649.156,58.99l-.908-1.33Z" transform="translate(-503.521 3.893)" fill="url(#linear-gradient-8)"/>
          <path id="Path_5202" data-name="Path 5202" d="M625.9,78.8l-.013-.026L614.945,86.24v.013l-50.787,34.638,1.2,1.752-12.006,8.4.614.882L535.21,145.031l.921,1.317,20.42-14.269h0l10.318-7.211.013.013,51.094-34.842-1.215-1.79L627.4,81l-.588-.869L647.856,65.77l-.908-1.33Z" transform="translate(-502.273 5.782)" fill="url(#linear-gradient-9)"/>
          <path id="Path_5203" data-name="Path 5203" d="M637.448,77.226l-.294-.448L624.3,85.537h0l-49.163,33.525,1.227,1.79-13.246,9.257.614.882L540.49,147.243l.921,1.317,24.882-17.389h0l12.8-8.95,47.935-32.682-1.215-1.777L638.663,79l-.754-1.112.46.665,7.979-5.639-.933-1.317Z" transform="translate(-500.802 7.777)" fill="url(#linear-gradient-10)"/>
          <path id="Path_5204" data-name="Path 5204" d="M636.244,83.3V83.27l-7.237,4.935h-.013l-28.91,19.716,1.227,1.79-12.236,8.554.614.882-44.1,30.828.921,1.317,45.839-32.042h0l10.728-7.493-.013-.013,28.654-19.537-1.2-1.777,7.237-4.935-.6-.869,7.582-5.166-.908-1.33Z" transform="translate(-499.381 9.596)" fill="url(#linear-gradient-11)"/>
          <path id="Path_5205" data-name="Path 5205" d="M636.2,89.192l-.153-.217-6.815,4.641h-.013l-22.951,15.638,1.215,1.79L596.8,118.511l.614.9L550.94,151.883l.921,1.317,48.856-34.139v-.013L610.1,112.5l21.839-14.9-1.2-1.764,6.815-4.654-.754-1.1,5.2-3.555-.6-.882Z" transform="translate(-497.89 11.691)" fill="url(#linear-gradient-12)"/>
          <path id="Path_5206" data-name="Path 5206" d="M516.087,67.237h0l6.534-4.565h0l24.7-16.839-1.215-1.777,10.855-7.39-.588-.869L592.944,10.85l-.908-1.33L555.468,34.453l-.013-.013-10.855,7.4v-.013L518.439,59.667l1.227,1.79-6.214,4.335.627.882-4.539,3.184.921,1.317Z" transform="translate(-509.425 -9.52)" fill="url(#linear-gradient-13)"/>
          <path id="Path_5207" data-name="Path 5207" d="M520.2,72.844v-.013l6.444-4.5L557.183,47.5l-1.2-1.764,8.426-5.754-.563-.818,39.8-27.388-.921-1.317L562.936,37.835l-.038-.064-8.426,5.741h0l-32.49,22.146,1.227,1.8-5.588,3.9.614.882-8.746,6.112.933,1.317Z" transform="translate(-509.439 -9.258)" fill="url(#linear-gradient-14)"/>
          <path id="Path_5208" data-name="Path 5208" d="M521.661,80.146h0l8.567-5.984,33.244-22.67-1.24-1.816,8.938-6.1-.562-.831L613.53,13.21l-.921-1.33L569.7,41.416l-.038-.051-9.321,6.355.026.038L525.522,71.515l1.227,1.8-7.531,5.268.614.882-10.382,7.25.933,1.317Z" transform="translate(-509.45 -8.862)" fill="url(#linear-gradient-15)"/>
          <path id="Path_5209" data-name="Path 5209" d="M525.074,85.936h0l9.334-6.521,35.328-24.089-1.215-1.79,9.423-6.431-.627-.921L623.284,15.19l-.9-1.33L575.8,45.263l.026.038-8.848,6.048h0L529.025,77.228l1.24,1.8L521.6,85.092l.614.882L509.5,94.848l.921,1.33Z" transform="translate(-509.436 -8.311)" fill="url(#linear-gradient-16)"/>
          <path id="Path_5210" data-name="Path 5210" d="M529.093,90.989l6.022-4.207v.013L575.839,59.01l-1.215-1.777,10.536-7.186-.588-.869L630.795,17.66l-.908-1.33L583.665,47.848l-.013-.013-10.6,7.224v.013l-40.66,27.72,1.2,1.777L525.82,90l.626.9L510.08,102.3l.933,1.317L529.106,91Z" transform="translate(-509.275 -7.623)" fill="url(#linear-gradient-17)"/>
          <path id="Path_5211" data-name="Path 5211" d="M532.831,96.3,539.7,91.5,581.8,62.8l-1.215-1.777,11.661-7.953-.6-.869L639.136,19.81l-.908-1.33L590.74,50.867l-.013-.026-12.352,8.426v.013L535.593,88.446l1.227,1.8-7.339,5.127.614.882-18.885,13.2.921,1.317L532.844,96.31Z" transform="translate(-508.96 -7.024)" fill="url(#linear-gradient-18)"/>
          <path id="Path_5212" data-name="Path 5212" d="M533.562,103.441l9.845-6.879,49.7-33.692-1.227-1.8,11-7.493-.6-.869,44.1-30.073-.908-1.343-44.1,30.073-.013-.013-11.329,7.736.013.026L538.421,94.095l1.227,1.816-9.206,6.431.627.882L512.81,115.972l.921,1.33,19.831-13.847Z" transform="translate(-508.514 -6.241)" fill="url(#linear-gradient-19)"/>
          <path id="Path_5213" data-name="Path 5213" d="M534.214,110.422l8.72-6.086,53.958-36.8-1.2-1.764,11.047-7.518-.6-.882L652.793,25.56l-.908-1.33L605.228,56.042l-.013-.013L594.181,63.56l-.013-.013-55.16,37.617,1.215,1.79-9.334,6.521.614.882L514.83,122.006l.921,1.33,18.476-12.914Z" transform="translate(-507.951 -5.422)" fill="url(#linear-gradient-20)"/>
          <path id="Path_5214" data-name="Path 5214" d="M535.261,116.14l7.39-5.153h.013l57.589-39.266-1.2-1.777,10.536-7.186-.6-.869,44.138-30.1-.908-1.33-44.138,30.1-.013-.026L597.53,67.719h0L539.928,107l1.215,1.764-8.707,6.086.652.921L517.22,126.753l.921,1.317L535.3,116.191Z" transform="translate(-507.285 -3.686)" fill="url(#linear-gradient-21)"/>
        </g>
        <rect id="Rectangle_1664" data-name="Rectangle 1664" width="97.111" height="1.611" transform="translate(558.86 167.848) rotate(-34.87)" fill="url(#linear-gradient-22)"/>
        <rect id="Rectangle_1665" data-name="Rectangle 1665" width="81.734" height="1.609" transform="matrix(0.821, -0.571, 0.571, 0.821, 565.218, 173.916)" fill="url(#linear-gradient-23)"/>
        <rect id="Rectangle_1666" data-name="Rectangle 1666" width="35.906" height="1.609" transform="matrix(0.821, -0.571, 0.571, 0.821, 588.979, 166.186)" fill="url(#linear-gradient-24)"/>
      </g>
    </g>
    <path id="Path_5230" data-name="Path 5230" d="M4636.609,4992.524c.586.538,1.268.269,1.913.22,2.528-.217,5.053-.446,7.579-.7.72-.072,1.026.137,1.075.911.091,1.6.341,3.186.408,4.785.051,1.123.347,1.808,1.628,1.574-1.048,1.01-.9,2.222-.776,3.538.62,6.448,1.246,12.877,1.77,19.325.132,1.612-.032,1.8-1.6,1.9a5.29,5.29,0,0,0-1.05.188c-2.482.252-4.965.516-7.458.65-6.448.731-12.936.806-19.343,1.88a44.114,44.114,0,0,0-6.813.384c-5.215.4-10.424.854-15.636,1.276q-7.217.588-14.43,1.217-7.143.612-14.3,1.185a34.267,34.267,0,0,0-4.661.494c-4.567,0-9.089.664-13.637.954-1.65.107-3.291.312-4.943.392-3.308.3-6.614.6-9.927.822-2.063.072-2.117-.038-2.311-2.109-.556-5.945-.965-11.9-1.516-17.85a8.278,8.278,0,0,1,.057-3.565c-.175-2.308-.269-4.626-.559-6.921-.164-1.343.421-1.568,1.539-1.63,2.668-.148,5.33-.365,7.993-.6.685-.062,1.443.038,2.015-.519,4.6-.411,9.2-.776,13.806-1.158a32.315,32.315,0,0,0,4.49-.591c4.2-.048,8.371-.607,12.554-.921,4.854-.363,9.7-.793,14.553-1.2s9.7-.83,14.551-1.214c4.986-.392,9.959-.93,14.953-1.185C4624.56,4993.524,4630.586,4993.029,4636.609,4992.524Z" transform="translate(-3793.443 1126.619)" fill="#2681c1"/>
    <path id="Path_5231" data-name="Path 5231" d="M4498.386,5049.44c3.888-.352,7.772-.714,11.663-1.053q3.116-.269,6.241-.462c.2,0,.417.269.626.424,1.131.347,1.563,1.424,2.254,2.208a32.142,32.142,0,0,0,42.708,5.338,31.9,31.9,0,0,0,9.416-10.134c.419-.709.667-1.583,1.513-1.978.494-.741,1.343-.682,2.044-.749,2.7-.269,5.414-.387,8.119-.6,3.055-.239,6.106-.521,9.159-.787-1.155,1.673-1.3,3.723-2.179,5.623a1.78,1.78,0,0,0,1.23-.489c2.815-1.794,5.7-3.492,8.538-5.233.086-.054.384,0,.239-.247-.046-.081-.231-.1-.317-.212.36-.39.841-.287,1.26-.244,1.04.11,1.1-.339,1-1.241-.363-3.437-.594-6.886-.918-10.325-.312-3.3-.674-6.6-1.01-9.905-.032-.309,0-.626-.056-.932-.183-1.1.072-1.881,1.343-2l16.256-1c-.927,2.044-1.744,3.863-2.574,5.679-1.523,3.326-3.033,6.66-4.6,9.967a1.679,1.679,0,0,0,.153,2.021c3.246,4.376,6.421,8.806,9.615,13.223.207.285.621.567.494.9-.174.47-.706.239-1.074.269q-14.776.87-29.576,1.689a1.855,1.855,0,0,0-1.79,1.247,48.522,48.522,0,0,1-29.127,25.866,49.266,49.266,0,0,1-53.3-15.063,13.973,13.973,0,0,1-1.73-2.211c-.892-1.679-2.184-1.9-3.96-1.749-9.792.838-19.6,1.55-29.4,2.3-.3.021-.61,0-1.075,0,.806-1.655,1.534-3.224,2.3-4.761,1.794-3.646,3.584-7.3,5.424-10.918a1.4,1.4,0,0,0-.18-1.765c-3.345-4.25-6.644-8.535-9.94-12.812-.269-.347-.806-.674-.65-1.1.175-.491.782-.215,1.19-.236q8.5-.456,17-.875c.537,1.54.312,3.17.479,4.747.513,4.887.771,9.8,1.158,14.7a13.14,13.14,0,0,1,.247,2.509c-.1.943.137,1.483,1.23,1.18a2.377,2.377,0,0,1,.666,0c4.111,1.305,7.985,3.224,12.189,4.733-.338-1.075-1.031-1.824-1.392-2.727S4498.064,5050.563,4498.386,5049.44Z" transform="translate(-3745.494 1109.499)" fill="#2681c1"/>
    <path id="Path_5232" data-name="Path 5232" d="M4668.094,4913.6a1.009,1.009,0,0,1-.97.57q-5.642.39-11.284.806c-1.942.148-3.882.341-5.824.516a11.952,11.952,0,0,1-2.192-2.515,31.966,31.966,0,0,0-22.178-11.663,31.11,31.11,0,0,0-17.374,3.4,32.9,32.9,0,0,0-14.005,13.833c-.252.457-.376,1.023-.951,1.238-.927,1.048-2.259.642-3.35.744-4.226.4-8.466.672-12.691,1.107-.7.07-1.51.331-2.166-.269a43.125,43.125,0,0,1,7.055-15.77c10.779-15.125,25.592-22.591,44.06-21.355,18.588,1.244,32.239,10.746,40.94,27.271C4667.52,4912.2,4667.788,4912.914,4668.094,4913.6Z" transform="translate(-3824.93 1205.539)" fill="#2681c1"/>
    <path id="Path_5233" data-name="Path 5233" d="M4642.9,4965.45c5.241-10.559,13.61-17.125,25.323-18.6,13-1.642,23.411,3.27,31.151,13.828a2.59,2.59,0,0,1,.226.478l-21.619,1.816-16.281,1.367q-8.672.717-17.353,1.395C4643.875,4965.764,4643.271,4966.1,4642.9,4965.45Z" transform="translate(-3874.508 1159.891)" fill="#fefefe"/>
    <path id="Path_5234" data-name="Path 5234" d="M4710.061,5119.625a33.728,33.728,0,0,1-14.078,14.464,32.607,32.607,0,0,1-40.645-8.433c-.384-.494-.779-.978-1.168-1.467.016-.538.414-.481.766-.51q8.487-.688,16.974-1.381,10.69-.886,21.377-1.8,8.014-.674,16.031-1.343C4709.69,5119.13,4710.059,5119.074,4710.061,5119.625Z" transform="translate(-3882.75 1033.656)" fill="#fefefe"/>
    <path id="Path_5235" data-name="Path 5235" d="M4722.994,5058.977a9.137,9.137,0,0,1-3.108.382c-.513.04-.671-.36-.875-.7-.621-1.034-1.306-2.037-1.837-3.116a1.387,1.387,0,0,0-1.79-.723c-.86.174-.406.843-.392,1.311a24.43,24.43,0,0,0,.188,2.808c.1.652-.081.856-.725.929-2.507.269-2.5.3-2.687-2.3-.269-3.385-.5-6.77-.831-10.147-.1-.989.242-1.238,1.147-1.263,1.738-.051,3.476-.247,5.217-.285,1.88-.041,3.441.578,4.212,2.458a4.185,4.185,0,0,1-1.249,4.943c-.465.427-.374.688-.1,1.115C4721.1,5055.9,4722.03,5057.416,4722.994,5058.977Z" transform="translate(-3924.254 1087.241)" fill="#fefefe"/>
    <path id="Path_5236" data-name="Path 5236" d="M4897.814,5045.052c-1.929.038-1.881.035-2.023-1.881-.241-3.517-.5-7.03-.835-10.539-.1-1.1.287-1.381,1.3-1.381,1.2,0,2.4-.236,3.605-.231a5.756,5.756,0,0,1,5.725,3.651c1.574,3.715.806,8.632-3.931,9.9A26.363,26.363,0,0,1,4897.814,5045.052Z" transform="translate(-4058.834 1098.104)" fill="#fefefe"/>
    <path id="Path_5237" data-name="Path 5237" d="M4758.182,5047.556c-.11-4.881,3.52-7.86,7.861-6.488,2.872.908,4.422,3.906,4.212,8.148a5.808,5.808,0,0,1-4.814,5.623c-3.761.76-6.88-1.8-7.254-5.945C4758.147,5048.453,4758.182,5048,4758.182,5047.556Z" transform="translate(-3958.809 1091)" fill="#fefefe"/>
    <path id="Path_5238" data-name="Path 5238" d="M4579.089,5070.424c-1.01.347-1.5-.3-1.735-1.287a1.246,1.246,0,0,0-1.768-1.034,3.484,3.484,0,0,1-1.2.126c-1.475-.153-2.418.3-2.472,1.942-.048,1.207-1.075.868-1.728.962-2.015.3-2.018.255-1.486-1.642,1.048-3.737,2.109-7.468,3.117-11.214.229-.849.575-1.327,1.534-1.273s1.932-.352,2.514,1.021c1.464,3.449,3.108,6.821,4.691,10.209C4581.534,5070.316,4581.542,5070.311,4579.089,5070.424Z" transform="translate(-3820.027 1079.112)" fill="#fefefe"/>
    <path id="Path_5239" data-name="Path 5239" d="M4860.132,5044.545c1.268-.1,2.418-.18,3.579-.3.787-.083,1.074.269.986,1-.067.607.473,1.451-.806,1.531-2.627.167-5.247.438-7.869.674-.473.043-.714-.041-.757-.61q-.472-6.136-1.016-12.275c-.056-.647.191-.844.806-.889,2.625-.2,5.25-.43,7.872-.672.895-.083.911.5.914,1.1s.349,1.4-.755,1.478c-1.424.1-2.845.3-4.272.328-.9.019-1.147.3-1.034,1.193.236,1.881.193,1.867,2.042,1.652.709-.081,1.438-.041,2.133-.169,1.147-.212,1.37.354,1.4,1.33.024.771-.113,1.158-.986,1.15a18.1,18.1,0,0,0-2.8.231c-.459.07-1.247-.312-1.309.5a3.929,3.929,0,0,0,.307,2.608C4858.923,5044.892,4859.681,5044.405,4860.132,5044.545Z" transform="translate(-4029.07 1096.663)" fill="#fefefe"/>
    <path id="Path_5240" data-name="Path 5240" d="M4668.792,5049.56a8.906,8.906,0,0,1,2.536.11,4.392,4.392,0,0,1,3.533,4.167,4.2,4.2,0,0,1-3.055,4.358,10.473,10.473,0,0,1-1.034.269c-1.007.229-2.442-.269-2.955.647-.414.76-.057,2.01.124,3.012.207,1.147-.207,1.553-1.3,1.461-.9-.072-1.993.567-2.055-1.271-.129-3.831-.538-7.651-.865-11.472-.064-.7.059-.94.806-.964C4665.946,5049.829,4667.368,5049.673,4668.792,5049.56Z" transform="translate(-3889.723 1084.577)" fill="#fefefe"/>
    <path id="Path_5241" data-name="Path 5241" d="M4617.031,5055.473c-.089-1.816-.094-1.921,1.84-2.021,1.859-.1,3.716-.6,5.6-.145a4.414,4.414,0,0,1,3.621,4.368,4.255,4.255,0,0,1-3.385,4.253,8.946,8.946,0,0,1-2.515.317c-.905,0-1.475.242-1.174,1.344a5.21,5.21,0,0,1,.089,1.612c-.03.607.47,1.472-.035,1.751a5.052,5.052,0,0,1-2.753.341c-.521-.035-.4-.513-.43-.838C4617.6,5062.844,4617.321,5059.239,4617.031,5055.473Z" transform="translate(-3855.566 1081.942)" fill="#fefefe"/>
    <path id="Path_5242" data-name="Path 5242" d="M4810.454,5046.522c.538-2.8,1.1-5.591,1.563-8.4.159-.97.513-1.343,1.532-1.367,2.437-.057,2.431-.11,1.832,2.268-.884,3.508-1.795,7.014-2.622,10.537a1.357,1.357,0,0,1-1.518,1.254c-2.435.078-2.418.124-3.434-2.229-1.405-3.286-2.8-6.571-4.237-9.844-.341-.779-.427-1.134.672-1.209,2.52-.167,2.514-.234,3.388,2.149q1.258,3.438,2.522,6.872Z" transform="translate(-3991.846 1093.923)" fill="#fefefe"/>
    <path id="Path_5243" data-name="Path 5243" d="M4558.242,5142c.685,2.111,1.975,3.938,2.772,6.133-1.7-.69-3.406-1.386-5.1-2.069-2.106-.843-4.223-1.66-6.324-2.52a9.735,9.735,0,0,1-1.247-.744Z" transform="translate(-3805.352 1016.939)" fill="#182f43"/>
    <path id="Path_5244" data-name="Path 5244" d="M4934.035,5110.9c.293.062.621-.091,1.01.269l-11.316,6.918c.736-2.262,1.343-4.14,1.958-6.015.132-.4.645-.288.835-.61Z" transform="translate(-4079.891 1039.684)" fill="#182f43"/>
    <path id="Path_5245" data-name="Path 5245" d="M4832.724,5181.448c-.027,1.311-.924,2.063-1.813,2.81-1.717,1.44-1.725,1.435-2.687-.538-.2-.4-.387-.806-.578-1.2-1.209-2.552-1.053-3.06,1.408-4.6,1.053-.658,2-.282,2.123.946.059.626.107.972.806,1.112C4832.426,5180.059,4832.713,5180.844,4832.724,5181.448Z" transform="translate(-4009.082 990.905)" fill="#fefdfd"/>
    <path id="Path_5246" data-name="Path 5246" d="M4614.67,5148.873c1.763.365,3.393.591,4.32-1.583.188,1.991.988,3.294,3.2,3.493a3.606,3.606,0,0,0-2.4,4.164c-1.26-1.263-2.458-2.373-4.438-1.357C4616.532,5151.739,4615.779,5150.336,4614.67,5148.873Z" transform="translate(-3853.861 1013.07)" fill="#fefdfd"/>
    <path id="Path_5247" data-name="Path 5247" d="M4874.032,5125.5c1.908,2.171,1.908,2.171,4.715,2.069-1.722,1.394-1.51,2.974-.763,4.739-1.642-.865-3.1-.943-4.5.564.317-2.187-.962-3.146-2.617-3.936C4872.67,5128.517,4874.247,5128.028,4874.032,5125.5Z" transform="translate(-4041.23 1029.006)" fill="#fefdfd"/>
    <path id="Path_5248" data-name="Path 5248" d="M4856.889,5160.741c-.64-2.246-1.222-4.345-1.843-6.432-.193-.65.18-.981.538-1.384.459-.5.806-.1,1.171.091q2.176,1.179,4.32,2.418c.269.164,1.013.269.57.766-.357.408-.658,1.252-1.588.776-.806-.408-2.149.628-2.1,1.537C4858.047,5159.779,4858.047,5159.779,4856.889,5160.741Z" transform="translate(-4029.621 1009.127)" fill="#fefdfd"/>
    <path id="Path_5249" data-name="Path 5249" d="M4652.119,5186.325c-.7-.4-1.494-.39-1.6-1.365-.045-.436-.567-.653-1.037-.717-.234-.03-.476.016-.538.288-.083.462.269.747.538,1a6.5,6.5,0,0,1,1.386,1.611,1.653,1.653,0,0,1,.021,1.776,1.422,1.422,0,0,1-1.65.6,4.815,4.815,0,0,1-3.347-2.235c-.282-.481-.519-1.284.059-1.507a1.349,1.349,0,0,1,1.445.9c.062.164.032.365.107.516a1.554,1.554,0,0,0,1.279.849.4.4,0,0,0,.5-.322c.086-.537-.365-.773-.645-1.1a11.669,11.669,0,0,1-1.284-1.531c-.685-1.155-.089-2.149,1.238-2.216A3.166,3.166,0,0,1,4652.119,5186.325Z" transform="translate(-3876.48 987.049)" fill="#fefdfc"/>
    <path id="Path_5250" data-name="Path 5250" d="M4790.689,5206.39c-1.217.793-2.12.774-2.9-.29-.215-.292-.483-.757-.961-.524-.581.282-.269.822-.116,1.164.328.79-.059,1-.7,1.2-.76.233-.806-.285-.9-.763-.3-1.394-.586-2.792-.892-4.183-.129-.588.038-.911.669-1.026a21.943,21.943,0,0,1,2.472-.538c1.316-.091,2.394,1.193,1.795,2.271s-.075,1.429.562,1.937C4790.018,5205.877,4790.338,5206.119,4790.689,5206.39Z" transform="translate(-3977.824 973.48)" fill="#fefdfd"/>
    <path id="Path_5251" data-name="Path 5251" d="M4718.729,5212.539c.217-1.668.39-3,.567-4.32.04-.291-.021-.6.414-.726,2.149-.6,4.785,1.3,4.755,3.468a2.755,2.755,0,0,1-3.117,2.867c-.443-.024-.884-.118-1.327-.15C4719.086,5213.61,4718.355,5213.4,4718.729,5212.539Z" transform="translate(-3929.891 969.124)" fill="#fefdfd"/>
    <path id="Path_5252" data-name="Path 5252" d="M4697.942,5208.653c-2.061.04-3.414-1.65-2.818-4.03.185-.733.443-1.451.623-2.187.148-.607.427-.806,1.05-.588.581.2.763.473.578,1.075-.269.935-.495,1.9-.709,2.853a1.065,1.065,0,0,0,.918,1.472c.844.153.938-.443,1.042-1.042.156-.878.3-1.762.5-2.63.1-.417.035-.991.873-.787.736.177.94.405.766,1.158-.229.994-.307,2.026-.468,3.039C4700.122,5208.121,4699.388,5208.583,4697.942,5208.653Z" transform="translate(-3912.598 973.232)" fill="#fefdfc"/>
    <path id="Path_5253" data-name="Path 5253" d="M4672.921,5202.562c-.983-.371-1.846-.4-1.948-1.58-.067-.763-1.881-1.319-2.479-.806-.806.7-1.448,0-1.841-.368-.489-.47.325-.725.613-1.01,1.075-1.075,2.149-2.12,3.293-3.127.61-.537,1.781-.15,1.79.623C4672.371,5198.339,4672.682,5200.359,4672.921,5202.562Z" transform="translate(-3891.768 977.87)" fill="#fefdfd"/>
    <path id="Path_5254" data-name="Path 5254" d="M4810.24,5200.729c.1-2,.22-3.914.269-5.827.014-.65.44-.792.862-1.037.479-.269.726.032,1.023.314,1.075,1.019,2.149,2.01,3.205,3.041.229.223.884.459.331.887-.4.306-.776.911-1.494.494a1.671,1.671,0,0,0-2.445,1.042C4811.8,5200.348,4811.8,5200.348,4810.24,5200.729Z" transform="translate(-3996.891 979.084)" fill="#fefcfc"/>
    <path id="Path_5255" data-name="Path 5255" d="M4763.945,5213.236c-.849.15-.849-.209-.726-.669.436-1.631.9-3.259,1.292-4.9a1,1,0,0,1,.916-.806c.578-.113.766.236,1,.647.728,1.276,1.5,2.523,2.227,3.8.156.269.771.6.177.946a1.165,1.165,0,0,1-1.475.019c-1.013-.876-1.964-.731-2.523.438C4764.571,5213.274,4764.149,5213.188,4763.945,5213.236Z" transform="translate(-3962.459 969.519)" fill="#fefcfc"/>
    <path id="Path_5256" data-name="Path 5256" d="M4846.175,5172.726c-.6.086-.688-.153-.806-.325q-1.384-2.209-2.748-4.428c-.438-.7.269-.973.583-1.287.538-.537.64.2.806.449.887,1.282,1.735,2.587,2.584,3.9A1.424,1.424,0,0,1,4846.175,5172.726Z" transform="translate(-4020.471 999.025)" fill="#fefcfb"/>
    <path id="Path_5257" data-name="Path 5257" d="M4746.257,5212.707c0,.707-.027,1.416,0,2.125.032.623-.2.856-.838.867-.685.014-.962-.2-.927-.908.07-1.461.113-2.923.113-4.384,0-.607.255-.742.806-.747s.806.215.782.782c-.024.755,0,1.51,0,2.262Z" transform="translate(-3948.803 967.456)" fill="#fdf6f4"/>
    <path id="Path_5258" data-name="Path 5258" d="M4795.5,4919.228a67.531,67.531,0,0,1,4.505-6.015c.483-.6.948-.486,1.523-.291.69.234,1.343.406,1.383,1.36.1,2.1.309,4.186.43,6.278.024.419.18,1.193-.443,1.112s-1.69-.209-1.666-1.029c.051-1.741-1.371-1.442-2.257-1.88-.193-.1-.5-.118-.61.1C4797.633,4920.311,4796.612,4919.464,4795.5,4919.228Z" transform="translate(-3986.109 1184.588)" fill="#fefdfd"/>
    <path id="Path_5259" data-name="Path 5259" d="M4711.352,4917.343a69.086,69.086,0,0,1,.537-7.555,1.007,1.007,0,0,1,1.013-1.013c.572-.065,1.207-.538,1.781.269a50.325,50.325,0,0,1,3.611,5.306c.18.333.833.792.292,1.093s-1.518.725-1.939,0c-.895-1.55-1.921-.392-2.891-.328a.327.327,0,0,0-.309.37C4713.688,4917.093,4712.311,4916.819,4711.352,4917.343Z" transform="translate(-3924.566 1187.65)" fill="#fefdfd"/>
    <path id="Path_5260" data-name="Path 5260" d="M4769.893,4909.354c-.04.782-.024,1.58.806,1.959a1.591,1.591,0,0,0,2.09-.578c.538-.618,1.478-.183,1.916.193s-.177.962-.556,1.284a4.068,4.068,0,0,1-4.3.465c-1.824-.664-2.617-2.644-2.122-5.078a3.157,3.157,0,0,1,3.551-2.547,4.134,4.134,0,0,1,3.761,1.88c.269.433.653,1.236.183,1.421-.607.239-1.762.2-2.007-.451a1.7,1.7,0,0,0-2.3-1.193c-1.037.3-.994,1.344-1.042,2.246C4769.887,4909.089,4769.893,4909.223,4769.893,4909.354Z" transform="translate(-3965.693 1190.23)" fill="#fefdfd"/>
    <path id="Path_5261" data-name="Path 5261" d="M4679.041,4922.478c1.045-.422,1.927-.739,2.772-1.128.615-.282.852-.075,1.088.5.269.626-.073.766-.538.924a28.839,28.839,0,0,0-4.15,1.856c-1,.538-1.362.291-1.287-.873a29.8,29.8,0,0,1,.93-4.994c.059-.252.25-.489.027-.806a13.623,13.623,0,0,0-2.985,1.4c-.583.338-.833.161-1.158-.344-.381-.594-.038-.763.387-.988a39.529,39.529,0,0,1,5.1-2.348c.344-.124.736-.513,1.1-.119a1.183,1.183,0,0,1,.132,1.258A27.206,27.206,0,0,0,4679.041,4922.478Z" transform="translate(-3896.941 1182.671)" fill="#fefdfd"/>
    <path id="Path_5262" data-name="Path 5262" d="M4740.042,4903.987c.538,0,1.075.027,1.612,0,.624-.04.881.18.868.836,0,.594-.255.725-.806.76-2.026.129-2.009.15-1.821,2.238.086.978.086,1.961.158,2.939.048.659,0,1.056-.875,1.059-.806,0-1.228-.113-1.26-1.034-.045-1.29-.25-2.574-.325-3.863-.057-.94-.379-1.4-1.395-1.1a7.1,7.1,0,0,1-.932.081c-.707.11-.637-.462-.752-.849-.164-.537.269-.572.61-.621a35.563,35.563,0,0,1,4.919-.448Z" transform="translate(-3941.48 1191.011)" fill="#fefdfd"/>
    <path id="Path_5263" data-name="Path 5263" d="M4855.407,4954.79c1.174,1.835,2.673,2.074,4.581,1.263-1.494,1.663-.844,3.138.142,4.607-.943.269-1.685-.312-2.466-.2-.86.124-1.107,1.118-2.031,1.488.03-2.084-1.343-2.915-3.154-3.468C4854.3,4957.915,4855.617,4957.042,4855.407,4954.79Z" transform="translate(-4027.781 1153.854)" fill="#fefdfd"/>
    <path id="Path_5264" data-name="Path 5264" d="M4611.669,4981.354c-1.284-1.569-2.8-1.257-4.739-.347.967-1.835,1.759-3.353-.121-4.779,2.042.349,3.46-.212,4.253-2.208.048,2.219,1.41,3.036,3.57,3.4a17.637,17.637,0,0,0-2.329,1.44C4611.643,4979.436,4612.234,4980.4,4611.669,4981.354Z" transform="translate(-3848.113 1139.791)" fill="#fefdfd"/>
    <path id="Path_5265" data-name="Path 5265" d="M4723.24,4962.98c2.738.142,4.766-.637,4.919-3.681.269.067.366.062.4.107.726.954.957,2.453,2.007,2.91.978.421,2.284.088,3.56.088-.411,1.3-2.023,1.76-2.031,3.039a24.113,24.113,0,0,0,.683,3.931c-2.281-1.628-4.366-2.434-6.346.016-.459-1.51.269-2.858-.51-3.829a17.416,17.416,0,0,0-2.646-2.219Z" transform="translate(-3933.264 1150.556)" fill="#2681c1"/>
    <path id="Path_5266" data-name="Path 5266" d="M4782.156,4975.071c-1.725-1.15-3.133-1.765-4.691-.25.521-2.111-.768-3.119-2.485-4.239,2.042-.172,3.656-.492,3.831-2.8.822,1.88,2.028,2.808,4.2,2.244C4781.253,4971.364,4781.3,4972.984,4782.156,4975.071Z" transform="translate(-3971.104 1144.354)" fill="#2681c1"/>
    <path id="Path_5267" data-name="Path 5267" d="M4689.461,4982.212c-1.574-.919-2.955-1.325-4.436.094.446-2.068-.693-3.135-2.555-4.247,2.085-.2,3.761-.427,3.936-2.749.852,1.76,1.881,2.9,4.095,2.311C4688.908,4978.9,4688.792,4980.412,4689.461,4982.212Z" transform="translate(-3903.447 1138.847)" fill="#2681c1"/>
    <path id="Path_5268" data-name="Path 5268" d="M4750.441,5138.31c-1.075,3.079-.22,5.019,2.764,6.047-1.319.83-2.88.341-3.613,1.359a20.743,20.743,0,0,0-1.652,3.627c-.973-2.488-2.149-4.449-5.319-3.834,2.354-2.055,2.042-4.3.862-6.571.253-.075.341-.137.4-.112,1.093.494,2.195,1.413,3.27,1.381C4748.136,5140.18,4749.1,5139.135,4750.441,5138.31Z" transform="translate(-3947.438 1019.638)" fill="#2681c1"/>
    <path id="Path_5269" data-name="Path 5269" d="M4709.171,5146.565c-2.187-.075-2.993,1.308-3.583,3.224a8.8,8.8,0,0,1-.669-1.2,1.915,1.915,0,0,0-2.085-1.475c-.312,0-1.118-.081-.618-.564,1.344-1.306.871-2.722.328-4.487,1.666,1.1,3.087,1.881,4.658.215C4706.81,5144.212,4707.283,5145.657,4709.171,5146.565Z" transform="translate(-3917.771 1016.896)" fill="#2681c1"/>
    <path id="Path_5270" data-name="Path 5270" d="M4792.72,5141.357c1.655-1.3,1.658-2.842.911-4.5a1.342,1.342,0,0,1,1.169.417,1.886,1.886,0,0,0,2.633.094c.314-.269.956-.406.771.269-.494,1.76.433,2.729,1.837,3.678-2.12-.113-3.132,1.075-3.761,2.917C4795.673,5142.48,4794.789,5141.28,4792.72,5141.357Z" transform="translate(-3984.078 1020.717)" fill="#2681c1"/>
    <path id="Path_5271" data-name="Path 5271" d="M4724.125,5057.053c-.086-1.765-.086-1.765,1.806-1.881a1.858,1.858,0,0,1,2.219,1.754c.107,1.467-.73,2.106-2.982,2.149C4723.341,5059.124,4724.561,5057.606,4724.125,5057.053Z" transform="translate(-3933.891 1080.445)" fill="#2681c1"/>
    <path id="Path_5272" data-name="Path 5272" d="M4907.984,5041.985c.132-.419-.347-1.144.236-1.383a2.759,2.759,0,0,1,2.566.215c1.91,1.217,2.278,6.195.57,7.651a3.223,3.223,0,0,1-2.12.671c-.519.014-.69-.19-.726-.7C4908.358,5046.313,4908.167,5044.186,4907.984,5041.985Z" transform="translate(-4068.33 1091.256)" fill="#2681c1"/>
    <path id="Path_5273" data-name="Path 5273" d="M4770.322,5054.319c-.062-2.418.895-3.874,2.5-3.922,1.5-.045,2.632,1.343,2.829,3.493a10.433,10.433,0,0,1,.013,3.334c-.269,1.18-.806,2.08-2.149,2.232a2.4,2.4,0,0,1-2.633-1.821A13.854,13.854,0,0,1,4770.322,5054.319Z" transform="translate(-3967.695 1083.933)" fill="#2681c1"/>
    <path id="Path_5274" data-name="Path 5274" d="M4587.1,5071.44c.688,1.738,1.238,3.135,1.8,4.546-2.912.556-2.917.553-2.38-2.112C4586.656,5073.184,4586.844,5072.5,4587.1,5071.44Z" transform="translate(-3833.07 1068.543)" fill="#2681c1"/>
    <path id="Path_5275" data-name="Path 5275" d="M4676.765,5060.684c-.4-1.163.043-1.741,1.521-1.725,1.771.021,2.579.537,2.687,2.039.083,1.276-.687,1.937-2.417,1.98C4676.872,5063.021,4676.856,5063.537,4676.765,5060.684Z" transform="translate(-3899.172 1077.671)" fill="#2681c1"/>
    <path id="Path_5276" data-name="Path 5276" d="M4629.918,5064.619c-.059-.843-.481-1.775,1.075-1.759,2.189.021,3.049.462,3.111,1.993.054,1.319-.707,1.921-2.582,2.031C4630.042,5066.973,4630.042,5066.973,4629.918,5064.619Z" transform="translate(-3864.943 1074.817)" fill="#2681c1"/>
    <path id="Path_5277" data-name="Path 5277" d="M4837.551,5191.05c.516.107.714.43.666.787a1.459,1.459,0,0,1-1.075,1.228c-.411.1-.642-.523-.642-.838C4836.5,5191.558,4837.239,5191.45,4837.551,5191.05Z" transform="translate(-4016.096 981.067)" fill="#2681c1"/>
    <path id="Path_5278" data-name="Path 5278" d="M4833.16,5185.7a.805.805,0,0,1-.593-.806c-.065-.58.478-.819.9-.989.355-.145.567.2.578.538C4834.06,5185.075,4833.547,5185.35,4833.16,5185.7Z" transform="translate(-4013.215 986.316)" fill="#2681c1"/>
    <path id="Path_5279" data-name="Path 5279" d="M4863.016,5162.6l-.935.843c-.229-.513-.419-.948-.631-1.426C4862.135,5161.7,4862.487,5162.209,4863.016,5162.6Z" transform="translate(-4034.342 1002.372)" fill="#2681c1"/>
    <path id="Path_5280" data-name="Path 5280" d="M4791.45,5206c.562,0,.868.269.881.806.019.736-.607.806-1.1.9-.825.129-.559-.661-.642-1.01C4790.426,5206,4791.168,5206.226,4791.45,5206Z" transform="translate(-3982.5 970.133)" fill="#2681c1"/>
    <path id="Path_5281" data-name="Path 5281" d="M4726.1,5215.317c.062-.57.089-1.013.156-1.448.148-.943.634-1.115,1.394-.51a2.354,2.354,0,0,1-.045,3.113,1.135,1.135,0,0,1-1.252.183C4725.769,5216.308,4726.325,5215.671,4726.1,5215.317Z" transform="translate(-3935.338 965.01)" fill="#2681c1"/>
    <path id="Path_5282" data-name="Path 5282" d="M4679.958,5204.677c-.538-.124-.93-.194-1.2-.61l1.024-1.187A3.948,3.948,0,0,1,4679.958,5204.677Z" transform="translate(-3900.732 972.415)" fill="#2681c1"/>
    <path id="Path_5283" data-name="Path 5283" d="M4816.337,5202.07c.292.438,1.147.538.819,1.282a.645.645,0,0,1-.567.269C4815.9,5203.26,4816.438,5202.607,4816.337,5202.07Z" transform="translate(-4001.273 973.007)" fill="#2681c1"/>
    <path id="Path_5284" data-name="Path 5284" d="M4771.394,5215.55c.322.43.865.773.551,1.343a.636.636,0,0,1-.613.075C4770.768,5216.515,4771.33,5216.05,4771.394,5215.55Z" transform="translate(-3968.254 963.149)" fill="#2681c1"/>
    <path id="Path_5285" data-name="Path 5285" d="M4811.641,4924.556l-1.271-.449c.209-.322.365-.591.538-.838.269-.354.537-.693.927-1.18.056.465.094.752.129,1.042C4811.966,4923.629,4812.42,4924.239,4811.641,4924.556Z" transform="translate(-3996.984 1177.769)" fill="#2681c1"/>
    <path id="Path_5286" data-name="Path 5286" d="M4815.1,4927.394c.508-.381.134-.97.333-1.424C4815.509,4926.489,4816.124,4927.134,4815.1,4927.394Z" transform="translate(-4000.445 1174.931)" fill="#f9bcac"/>
    <path id="Path_5287" data-name="Path 5287" d="M4721.107,4920.341c-1.79.569-1.79.569-1.37-1.881A5.989,5.989,0,0,1,4721.107,4920.341Z" transform="translate(-3930.535 1180.424)" fill="#2681c1"/>
  </g>
</svg>
