<svg xmlns="http://www.w3.org/2000/svg" width="39.191" height="39.193" viewBox="0 0 39.191 39.193">
  <g id="Group_5112" data-name="Group 5112" transform="translate(-371.478 -56.477)">
    <path id="Path_10680" data-name="Path 10680" d="M374.39,80.8c.729,0,1.458-.01,2.187.005.246.005.32-.066.317-.315-.013-1.137-.016-2.275,0-3.412,0-.291-.1-.329-.354-.327-1.327.011-2.654,0-3.981,0-.1,0-.2,0-.306,0-.488-.02-.789-.293-.777-.7a.689.689,0,0,1,.771-.662c1.108-.009,2.216,0,3.324,0,.421,0,.986.147,1.226-.066.276-.245.077-.822.085-1.254.014-.772-.012-1.546.012-2.318.01-.318-.062-.419-.4-.413-1.341.022-2.683.009-4.024.009-.1,0-.2.005-.306,0a.682.682,0,0,1-.688-.653.661.661,0,0,1,.644-.689c.3-.026.612-.013.918-.013,1.167,0,2.333-.007,3.5,0,.249,0,.362-.037.357-.329q-.027-1.705,0-3.412c0-.293-.109-.327-.356-.325-1.429.01-2.858.007-4.287,0a.683.683,0,0,1-.775-.647c-.014-.408.286-.677.775-.692.1,0,.2,0,.306,0,1.3,0,2.6-.009,3.893.007.323,0,.479-.047.441-.42-.166-1.626.62-2.449,2.29-2.284.322.032.421-.063.417-.4-.02-1.429-.012-2.858,0-4.287a.663.663,0,0,1,.648-.727.678.678,0,0,1,.687.735c0,.1,0,.2,0,.306,0,1.312.01,2.625-.007,3.937,0,.324.053.452.418.442,1.078-.028,2.158-.022,3.237,0,.318.006.424-.062.418-.4-.022-1.312-.009-2.625-.009-3.937,0-.1,0-.2,0-.306.022-.489.295-.789.7-.773s.644.308.653.777c.007.379,0,.758,0,1.137,0,1.035.016,2.071-.009,3.105-.008.34.1.405.414.4,1.093-.02,2.187-.017,3.28,0,.283,0,.369-.067.366-.36-.016-1.341-.007-2.683-.007-4.024,0-.117-.007-.234,0-.35a.679.679,0,1,1,1.358.006c.014.174,0,.35,0,.525,0,1.269.008,2.537-.006,3.806,0,.286.043.406.371.4,1.108-.022,2.216-.018,3.324,0,.286,0,.365-.072.362-.36-.016-1.3-.007-2.6-.007-3.893,0-.117,0-.233,0-.35.008-.5.252-.8.658-.815s.686.3.7.822c.007.364,0,.729,0,1.094,0,1.05.007,2.1-.005,3.149,0,.255.047.358.333.353q1.706-.025,3.412,0c.3,0,.325-.114.323-.358-.009-1.429-.007-2.858,0-4.287a.682.682,0,0,1,.648-.774c.408-.013.676.288.69.776,0,.1,0,.2,0,.306,0,1.3.01,2.6-.007,3.893,0,.323.049.478.42.441,1.655-.167,2.449.645,2.287,2.289-.032.324.066.421.4.416,1.327-.021,2.654-.009,3.98-.008.117,0,.234,0,.35,0a.669.669,0,0,1,.682.651.66.66,0,0,1-.695.681c-1.341.009-2.683,0-4.024,0-.691,0-.691,0-.691.678,0,1.006.01,2.012-.007,3.018,0,.286.073.37.364.367,1.327-.016,2.654-.007,3.981-.007.117,0,.234-.005.35,0a.678.678,0,1,1-.018,1.352c-.51.011-1.021,0-1.531,0-.933,0-1.867.009-2.8-.006-.257,0-.351.048-.347.331q.027,1.684,0,3.368c0,.3.092.359.37.356,1.312-.014,2.625-.006,3.937-.006.1,0,.2,0,.306,0,.5.015.8.268.805.674s-.3.677-.788.692c-.233.007-.467,0-.7,0-1.2,0-2.391.008-3.587-.006-.265,0-.347.064-.343.338.016,1.123.019,2.246,0,3.368-.006.309.107.351.374.348,1.414-.011,2.829-.008,4.243,0,.5,0,.8.263.8.671s-.292.664-.793.685c-.1,0-.2,0-.306,0-1.269,0-2.538.021-3.805-.012-.433-.011-.53.115-.517.529.032,1.005.041,2.013,0,3.017-.021.47.14.539.556.531,1.341-.026,2.683-.011,4.024-.009.535,0,.842.248.844.666s-.308.671-.84.673c-1.385,0-2.77.01-4.156-.005-.306,0-.456.043-.42.4.17,1.667-.639,2.481-2.313,2.307-.358-.037-.4.122-.393.423.014,1.429.011,2.858,0,4.287a.663.663,0,0,1-.669.707.678.678,0,0,1-.664-.716c0-.1,0-.2,0-.306,0-1.327-.01-2.654.007-3.98,0-.313-.053-.426-.4-.418-1.093.025-2.187.02-3.28,0-.3,0-.4.068-.393.382.017,1.312.007,2.625.007,3.937,0,.1,0,.2,0,.306-.019.5-.276.8-.683.793s-.669-.306-.671-.8c0-1.268,0-2.537,0-3.806,0-.8,0-.8-.823-.8-.962,0-1.925.011-2.887-.007-.273,0-.342.074-.34.341.013,1.341.006,2.683.006,4.024,0,.117.006.234,0,.35a.688.688,0,0,1-.688.7.678.678,0,0,1-.671-.717c-.017-.539,0-1.079,0-1.618,0-.9-.01-1.808.006-2.712,0-.274-.051-.377-.354-.372q-1.684.029-3.368,0c-.28,0-.336.083-.334.344.012,1.356.006,2.712.006,4.068,0,.117.007.234,0,.35a.667.667,0,0,1-.684.653.638.638,0,0,1-.656-.63c-.024-.246-.012-.5-.012-.743,0-1.225-.009-2.45.006-3.674,0-.285-.071-.372-.363-.367q-1.684.026-3.368,0c-.274,0-.341.076-.339.343.013,1.443,0,2.887.007,4.331a.665.665,0,0,1-.552.73.637.637,0,0,1-.724-.366,1.018,1.018,0,0,1-.063-.515c0-1.371-.012-2.741.007-4.112,0-.326-.075-.441-.409-.408-1.655.166-2.474-.637-2.3-2.322.033-.318-.091-.385-.39-.382-1.414.015-2.829.011-4.243,0-.49,0-.792-.279-.781-.685s.3-.642.769-.653c.1,0,.2,0,.305,0,1.312,0,2.625-.012,3.937.009.33.005.414-.083.407-.41q-.033-1.64,0-3.28c.006-.317-.1-.384-.394-.381-1.327.015-2.654.007-3.981.006-.117,0-.234,0-.35-.006a.684.684,0,0,1-.694-.692.675.675,0,0,1,.725-.658C372.932,80.793,373.661,80.8,374.39,80.8Z" transform="translate(0 0)" fill="#fff"/>
    <path id="Path_10681" data-name="Path 10681" d="M454.9,127.105q0,6.079,0,12.158c0,.6-.04.642-.646.642h-24.4c-.606,0-.642-.037-.642-.645q0-12.2,0-24.4c0-.6.038-.641.646-.641h24.4c.6,0,.643.038.643.644Q454.9,120.983,454.9,127.105Z" transform="translate(-50.976 -50.988)" fill="#124162"/>
    <path id="Path_10682" data-name="Path 10682" d="M463.865,157.757q0-2.93,0-5.859a2.657,2.657,0,0,1,2.9-2.9q5.881,0,11.762,0a2.656,2.656,0,0,1,2.895,2.91q0,5.859,0,11.718a2.666,2.666,0,0,1-2.924,2.927c-3.906,0-7.812-.035-11.718.017a2.793,2.793,0,0,1-2.931-2.951C463.912,161.664,463.865,159.71,463.865,157.757Z" transform="translate(-81.572 -81.7)" fill="#fff"/>
    <path id="Path_10683" data-name="Path 10683" d="M610.534,124.105a2.021,2.021,0,0,1-.007-4.042,2.021,2.021,0,1,1,.007,4.042Z" transform="translate(-209.321 -56.152)" fill="#fff"/>
    <path id="Path_10684" data-name="Path 10684" d="M439.1,295.532a2.021,2.021,0,1,1-2.018-2.017A2.015,2.015,0,0,1,439.1,295.532Z" transform="translate(-56.15 -209.323)" fill="#fff"/>
    <path id="Path_10685" data-name="Path 10685" d="M608.514,295.537a2.021,2.021,0,0,1,4.042-.012,2.021,2.021,0,1,1-4.042.012Z" transform="translate(-209.322 -209.322)" fill="#fff"/>
    <path id="Path_10686" data-name="Path 10686" d="M437.091,124.106a2.021,2.021,0,1,1,2.012-2.024A2.014,2.014,0,0,1,437.091,124.106Z" transform="translate(-56.149 -56.152)" fill="#fff"/>
    <path id="Path_10687" data-name="Path 10687" d="M490.354,167.961q0,2.931,0,5.861a1.352,1.352,0,0,1-1.517,1.541q-5.927,0-11.854,0a1.345,1.345,0,0,1-1.5-1.516q0-5.927,0-11.854A1.343,1.343,0,0,1,477,160.5h11.854a1.344,1.344,0,0,1,1.5,1.515Q490.356,164.986,490.354,167.961Z" transform="translate(-91.846 -91.857)" fill="#124161"/>
    <path id="Path_10688" data-name="Path 10688" d="M621.327,132.3a.675.675,0,1,1-.662-.675A.679.679,0,0,1,621.327,132.3Z" transform="translate(-219.444 -66.357)" fill="#124161"/>
    <path id="Path_10689" data-name="Path 10689" d="M447.984,305.683a.694.694,0,0,1-.709.629.675.675,0,0,1-.635-.739.688.688,0,0,1,.724-.609A.7.7,0,0,1,447.984,305.683Z" transform="translate(-66.371 -219.431)" fill="#124161"/>
    <path id="Path_10690" data-name="Path 10690" d="M621.328,305.641a.681.681,0,0,1-.661.677.676.676,0,1,1,.661-.677Z" transform="translate(-219.444 -219.436)" fill="#124161"/>
    <path id="Path_10691" data-name="Path 10691" d="M447.972,132.282a.7.7,0,0,1-.661.682.694.694,0,0,1-.689-.695.68.68,0,0,1,.68-.657A.693.693,0,0,1,447.972,132.282Z" transform="translate(-66.358 -66.35)" fill="#124161"/>
    <path id="Path_10692" data-name="Path 10692" d="M493.2,206.756c1.749,0,3.5,0,5.248,0,.553,0,.865.339.761.81-.093.418-.394.531-.785.53-1.647-.005-3.294,0-4.942,0-1.866,0-3.732,0-5.6,0a.7.7,0,0,1-.764-.448.664.664,0,0,1,.7-.891c1.181-.009,2.362,0,3.542,0Z" transform="translate(-102.083 -132.707)" fill="#fff"/>
    <path id="Path_10693" data-name="Path 10693" d="M493.208,183.61q2.646,0,5.291,0c.475,0,.774.244.779.638a.618.618,0,0,1-.54.683,2.4,2.4,0,0,1-.436.022H488.113a3.116,3.116,0,0,1-.393-.015.621.621,0,0,1-.584-.647.642.642,0,0,1,.606-.674c.261-.021.524-.007.787-.007Z" transform="translate(-102.134 -112.265)" fill="#fff"/>
    <path id="Path_10694" data-name="Path 10694" d="M490.5,229.914c.86,0,1.719,0,2.579,0,.493,0,.8.271.791.676a.688.688,0,0,1-.769.659q-2.623.008-5.245,0a.662.662,0,0,1-.74-.679c.006-.4.29-.652.762-.655C488.749,229.91,489.623,229.914,490.5,229.914Z" transform="translate(-102.115 -153.158)" fill="#fff"/>
  </g>
</svg>
