<svg xmlns="http://www.w3.org/2000/svg" width="21" height="21.003" viewBox="0 0 21 21.003">
  <path id="Insta" d="M297,8729.61a5.39,5.39,0,1,0,5.391,5.39A5.393,5.393,0,0,0,297,8729.61Zm0,8.909a3.514,3.514,0,0,1-3.516-3.52,3.493,3.493,0,1,1,3.516,3.52Zm6.844-9.1a1.266,1.266,0,1,0-1.266,1.271A1.258,1.258,0,0,0,303.844,8729.42Zm3.562,1.271a5.794,5.794,0,0,0-6.094-6.1c-1.734-.09-6.937-.09-8.671,0a6.429,6.429,0,0,0-4.407,1.69,6.33,6.33,0,0,0-1.687,4.41c-.094,1.729-.094,6.93,0,8.67a5.78,5.78,0,0,0,6.094,6.09c1.734.1,6.937.1,8.671,0a6.333,6.333,0,0,0,4.407-1.681,6.412,6.412,0,0,0,1.687-4.409C307.5,8737.62,307.5,8732.42,307.406,8730.69Zm-2.25,10.5a3.474,3.474,0,0,1-1.968,2.01c-1.407.569-4.688.42-6.188.42-1.547,0-4.828.149-6.188-.42a3.553,3.553,0,0,1-2.015-2.01c-.563-1.36-.422-4.641-.422-6.19,0-1.5-.141-4.78.422-6.19a3.636,3.636,0,0,1,2.015-1.97c1.36-.56,4.641-.42,6.188-.42,1.5,0,4.781-.14,6.188.42a3.543,3.543,0,0,1,1.968,1.97c.563,1.41.422,4.69.422,6.19C305.578,8736.55,305.719,8739.83,305.156,8741.19Z" transform="translate(-286.477 -8724.522)" fill="#e8f1f2"/>
</svg>
