<svg xmlns="http://www.w3.org/2000/svg" width="32.731" height="32.73" viewBox="0 0 32.731 32.73">
  <path id="ramen_dining_FILL0_wght400_GRAD0_opsz48" d="M15.9,33.842h8.341V31.586l1.451-.6a14,14,0,0,0,4.875-3.264,12.032,12.032,0,0,0,2.7-4.392H6.876a11.972,11.972,0,0,0,2.74,4.412,13.982,13.982,0,0,0,4.835,3.244l1.451.6ZM14.693,36.26a1.171,1.171,0,0,1-1.209-1.209V33.117A15.728,15.728,0,0,1,7.118,28.7,12.947,12.947,0,0,1,4.1,22.157a.973.973,0,0,1,.242-.846,1.078,1.078,0,0,1,.846-.363H6.876V8.377A1.114,1.114,0,0,1,7.2,7.591a1.365,1.365,0,0,1,.766-.423L35.122,4.146a.819.819,0,0,1,.766.242,1.046,1.046,0,0,1,.322.766.942.942,0,0,1-.242.665.975.975,0,0,1-.645.3L16.95,8.175v3.506H35.2a1.008,1.008,0,1,1,0,2.015H16.95v7.253H34.961a1.078,1.078,0,0,1,.846.363.973.973,0,0,1,.242.846A12.947,12.947,0,0,1,33.027,28.7a15.728,15.728,0,0,1-6.366,4.412v1.934a1.171,1.171,0,0,1-1.209,1.209ZM12.92,11.681h2.015v-3.3l-2.015.242Zm-4.029,0h2.015V8.82l-2.015.242Zm4.029,9.267h2.015V13.7H12.92Zm-4.029,0h2.015V13.7H8.891ZM20.093,33.842Z" transform="translate(-3.779 -3.829)" fill="#fff" stroke="#12466a" stroke-width="0.6"/>
</svg>
