<svg xmlns="http://www.w3.org/2000/svg" width="36.322" height="36.418" viewBox="0 0 36.322 36.418">
  <g id="Group_5109" data-name="Group 5109" transform="translate(-348.602 -75.956)">
    <path id="Path_10646" data-name="Path 10646" d="M350.073,76.156l6.1,1.965c.1.032.2.068.3.091a1.33,1.33,0,0,1,1.089,1.242c.26,1.616.591,3.22.869,4.833.045.262.135.309.377.308q4.542-.012,9.085-.005h15.529c1,0,1.418.484,1.24,1.464q-1.374,7.576-2.755,15.151a1.082,1.082,0,0,1-1.22.956H359.172a1.76,1.76,0,1,0-.282,3.508,1.5,1.5,0,0,0,1.207-.357,3.774,3.774,0,0,1,5.113.179.6.6,0,0,0,.46.187q3.909-.008,7.817,0a.638.638,0,0,0,.487-.207,3.838,3.838,0,0,1,5.31.007.636.636,0,0,0,.49.2c1.256-.009,2.512-.006,3.768,0a1.06,1.06,0,1,1,.015,2.107c-.927,0-1.855.011-2.782-.006-.254,0-.293.071-.286.309a3.867,3.867,0,1,1-7.726.029c.009-.282-.058-.339-.328-.338q-2.852.018-5.7,0c-.27,0-.338.055-.329.338a3.867,3.867,0,0,1-7.627,1.05,2.958,2.958,0,0,1-.1-1.078c.032-.262-.061-.325-.3-.372a3.7,3.7,0,0,1-3.085-2.812,3.845,3.845,0,0,1,3.607-4.847c.081,0,.162-.009.262-.015-.269-1.485-.534-2.955-.8-4.424q-1.006-5.522-2.014-11.043c-.248-1.357-.508-2.712-.734-4.073a.553.553,0,0,0-.465-.5c-1.831-.571-3.655-1.163-5.483-1.743a1.1,1.1,0,0,1-.833-.86.98.98,0,0,1,.375-1,2.706,2.706,0,0,1,.45-.243Z" fill="#fff" stroke="#124365" stroke-width="0.4"/>
    <path id="Path_10647" data-name="Path 10647" d="M479.85,188.349c-.312,1.727-.617,3.428-.927,5.128-.483,2.644-.974,5.287-1.447,7.934-.042.237-.116.3-.349.3q-9.046-.01-18.092,0c-.218,0-.289-.055-.329-.279q-1.151-6.4-2.333-12.8c-.056-.3.056-.285.268-.285q4.242.007,8.483,0H479.85Z" transform="translate(-97.451 -101.651)" fill="#124364" stroke="#124364" stroke-width="0.4"/>
    <path id="Path_10648" data-name="Path 10648" d="M479.8,401.117a1.76,1.76,0,1,1-1.779-1.745A1.762,1.762,0,0,1,479.8,401.117Z" transform="translate(-115.505 -292.852)" fill="#124364" stroke="#707070" stroke-width="0.4"/>
    <path id="Path_10649" data-name="Path 10649" d="M628,402.884a1.756,1.756,0,1,1,1.749-1.776A1.762,1.762,0,0,1,628,402.884Z" transform="translate(-251.364 -292.852)" fill="#124364" stroke="#707070" stroke-width="0.4"/>
    <path id="Path_10650" data-name="Path 10650" d="M494.679,218.584c.056.785-.312,1.278-.9,1.354a1.057,1.057,0,0,1-1.185-.982c-.167-1.382-.308-2.768-.458-4.153-.1-.919-.2-1.838-.293-2.758a1.054,1.054,0,1,1,2.09-.231c.165,1.371.3,2.745.453,4.118C494.492,216.863,494.593,217.794,494.679,218.584Z" transform="translate(-129.6 -122.001)" fill="#fff" stroke="#124364" stroke-width="0.4"/>
    <path id="Path_10651" data-name="Path 10651" d="M640.024,218.919c.27-2.49.512-4.771.767-7.05a1.079,1.079,0,0,1,.96-1.046,1.066,1.066,0,0,1,1.1.7,1.674,1.674,0,0,1,.023.765c-.236,2.2-.471,4.4-.72,6.6a1.058,1.058,0,0,1-1.585.924A.971.971,0,0,1,640.024,218.919Z" transform="translate(-263.859 -122.011)" fill="#fff" stroke="#124364" stroke-width="0.4"/>
    <path id="Path_10652" data-name="Path 10652" d="M546.117,215.413c.045,1.135.1,2.269.131,3.4a1.053,1.053,0,0,1-1.436,1.075.979.979,0,0,1-.666-.907q-.143-3.509-.267-7.019a1.061,1.061,0,0,1,1.042-1.133,1.05,1.05,0,0,1,1.066,1.071q.072,1.755.138,3.51Z" transform="translate(-176.75 -122.024)" fill="#fff" stroke="#124364" stroke-width="0.4"/>
    <path id="Path_10653" data-name="Path 10653" d="M593.484,215.417q.069-1.755.138-3.51a1.056,1.056,0,1,1,2.108.053c-.044,1.463-.105,2.925-.161,4.387q-.048,1.263-.1,2.527a1.055,1.055,0,0,1-1.08,1.093,1.066,1.066,0,0,1-1.029-1.146c.035-1.135.086-2.27.131-3.4Z" transform="translate(-221.583 -122.024)" fill="#fff" stroke="#124364" stroke-width="0.4"/>
  </g>
</svg>
