<svg xmlns="http://www.w3.org/2000/svg" width="42.059" height="39.33" viewBox="0 0 42.059 39.33">
  <g id="Group_5104" data-name="Group 5104" transform="translate(-360.797 -90.813)">
    <path id="Path_10556" data-name="Path 10556" d="M381.831,390.453q-8.691,0-17.381,0a3.38,3.38,0,0,1-3.333-2.027,6.126,6.126,0,0,1-.275-2.928,3.361,3.361,0,0,1,2.557-3.066,5.145,5.145,0,0,1,1.17-.12q10.4,0,20.8.009c.414,0,.564-.06.553-.527-.037-1.531-.014-3.064-.014-4.6,0-.784.189-.969.986-.971.9,0,1.81-.013,2.714.007.295.006.365-.086.363-.37-.013-1.576-.007-3.152-.006-4.728,0-.809.206-1.017,1-1.018h5.473c.8,0,1,.2,1,1.016,0,1.562.01,3.123-.007,4.685,0,.322.071.452.409.414a6,6,0,0,1,.787,0c.6.012.843.246.845.859.006,1.634.009,3.269,0,4.9,0,.265.075.361.334.376a3.333,3.333,0,0,1,3.03,3.179,5.64,5.64,0,0,1-.456,3.236,3.327,3.327,0,0,1-2.547,1.643,6.123,6.123,0,0,1-.743.025Z" transform="translate(0 -260.313)" fill="#fff"/>
    <path id="Path_10557" data-name="Path 10557" d="M375.227,119.29c-.642,0-1.284.007-1.926,0-.553-.008-.8-.252-.8-.809-.008-1.094-.012-2.189,0-3.283,0-.264-.073-.392-.329-.459a6.993,6.993,0,0,1-1.687-.7.361.361,0,0,0-.518.093c-.752.775-1.519,1.535-2.286,2.295-.454.451-.785.453-1.235.008q-1.3-1.3-2.6-2.6a.735.735,0,0,1,0-1.234c.76-.767,1.519-1.536,2.3-2.286a.383.383,0,0,0,.08-.553,6.929,6.929,0,0,1-.669-1.607.436.436,0,0,0-.516-.379c-1.035.025-2.072.011-3.108.009-.717,0-.954-.23-.957-.934q-.008-1.773,0-3.546c0-.729.216-.943.931-.945,1.051,0,2.1-.007,3.152,0,.247,0,.4-.038.471-.314a7.461,7.461,0,0,1,.719-1.728.335.335,0,0,0-.077-.479c-.763-.743-1.512-1.5-2.264-2.255-.521-.522-.519-.827.011-1.359q1.22-1.225,2.444-2.447c.548-.547.857-.55,1.4-.013.734.731,1.47,1.46,2.194,2.2.174.178.313.248.556.108a7.66,7.66,0,0,1,1.687-.7.363.363,0,0,0,.312-.423c-.017-1.05-.008-2.1-.007-3.152,0-.75.223-.978.955-.98q1.773,0,3.546,0c.687,0,.923.237.925.916,0,1.051.017,2.1-.009,3.152a.431.431,0,0,0,.379.507,7.08,7.08,0,0,1,1.6.674.412.412,0,0,0,.593-.108c.731-.754,1.479-1.492,2.225-2.233.493-.489.806-.489,1.3,0q1.272,1.266,2.537,2.539c.489.492.487.8,0,1.3-.741.745-1.479,1.493-2.233,2.224-.2.189-.256.33-.106.586a7.388,7.388,0,0,1,.7,1.688.365.365,0,0,0,.431.3c1.08-.014,2.16-.009,3.239,0,.63,0,.874.237.878.868q.012,1.839,0,3.677c0,.622-.261.873-.884.877-1.08.007-2.16.01-3.239,0a.365.365,0,0,0-.431.307,8.026,8.026,0,0,1-.723,1.727.335.335,0,0,0,.09.478c.76.746,1.511,1.5,2.263,2.257.508.511.508.821,0,1.328q-1.267,1.271-2.54,2.537c-.469.465-.8.465-1.269,0-.756-.751-1.512-1.5-2.256-2.263-.176-.181-.313-.243-.553-.1a6.4,6.4,0,0,1-1.646.687c-.3.076-.362.239-.356.529.019,1.05.01,2.1.007,3.152,0,.648-.221.874-.858.88C376.453,119.3,375.84,119.29,375.227,119.29Z" transform="translate(-0.161 0)" fill="#fff"/>
    <path id="Path_10558" data-name="Path 10558" d="M400.1,569.38c5.765,0,11.53.026,17.3-.017a2.162,2.162,0,0,1,2.375,2.369c-.026.319,0,.642,0,.963a2.032,2.032,0,0,1-1.883,2.091,3.632,3.632,0,0,1-.437.019H382.77a2.041,2.041,0,0,1-2.255-1.586,5.758,5.758,0,0,1,0-2.261,1.962,1.962,0,0,1,2.075-1.575c2.481-.006,4.962,0,7.444,0Z" transform="translate(-18.272 -446.006)" fill="#124568"/>
    <path id="Path_10559" data-name="Path 10559" d="M812.052,394.66c-.671,0-1.342-.01-2.012.005-.247.006-.322-.067-.319-.317q.017-2.078,0-4.157c0-.229.065-.3.3-.3q2.078.014,4.157,0c.229,0,.3.065.3.295q-.015,2.078,0,4.157c0,.248-.067.324-.317.318C813.453,394.65,812.752,394.66,812.052,394.66Z" transform="translate(-418.394 -278.744)" fill="#124568"/>
    <path id="Path_10560" data-name="Path 10560" d="M752.1,484.369c-.685,0-1.371-.01-2.056.005-.249.005-.323-.069-.321-.32q.017-2.056,0-4.111c0-.243.064-.324.317-.322q2.078.017,4.155,0c.228,0,.3.065.3.3-.009,1.385-.012,2.77,0,4.155,0,.276-.118.3-.34.3C753.471,484.363,752.786,484.369,752.1,484.369Z" transform="translate(-362.478 -362.367)" fill="#124568"/>
    <path id="Path_10561" data-name="Path 10561" d="M841.912,484.365c-.7,0-1.4-.011-2.1.006-.254.006-.313-.079-.311-.32q.016-2.055,0-4.111c0-.238.051-.326.309-.323q2.077.019,4.155,0c.239,0,.289.079.288.3-.009,1.385-.012,2.77,0,4.155,0,.272-.105.3-.332.3C843.253,484.357,842.582,484.365,841.912,484.365Z" transform="translate(-446.15 -362.363)" fill="#124568"/>
    <path id="Path_10562" data-name="Path 10562" d="M382.873,122.366c.525,0,1.051,0,1.576,0a.7.7,0,0,0,.755-.585,9.311,9.311,0,0,1,1.133-2.729.75.75,0,0,0-.155-1.022c-.739-.727-1.458-1.473-2.206-2.19-.226-.217-.207-.331.011-.534q.737-.685,1.424-1.423c.193-.206.293-.179.475.009.711.733,1.439,1.451,2.164,2.171.431.428.637.461,1.155.154a9.5,9.5,0,0,1,2.53-1.051c.56-.141.707-.339.71-.932.005-1.007.012-2.014-.005-3.021,0-.282.067-.374.358-.364.656.022,1.315.03,1.97,0,.356-.018.4.123.4.427-.017.978-.009,1.956-.006,2.934,0,.663.11.8.758.972a9.344,9.344,0,0,1,2.447,1.026c.537.323.747.289,1.192-.154.714-.71,1.43-1.418,2.133-2.139.183-.188.294-.246.5-.018.464.5.952.989,1.454,1.455.211.2.167.293-.013.467-.732.712-1.451,1.438-2.172,2.162a.766.766,0,0,0-.151,1.16,9.689,9.689,0,0,1,1.051,2.53c.152.581.314.7.926.7,1.007,0,2.014.01,3.021-.005.276,0,.381.055.371.356-.024.685-.019,1.372,0,2.058.007.255-.079.312-.32.309-1.021-.013-2.043-.008-3.065,0-.594,0-.783.141-.931.707a9.686,9.686,0,0,1-1.051,2.53c-.3.511-.269.735.15,1.157.731.735,1.461,1.47,2.2,2.195.156.153.18.244.009.408-.506.484-1,.978-1.485,1.486-.182.193-.284.207-.478.006-.7-.725-1.419-1.43-2.132-2.14-.473-.471-.66-.5-1.224-.168a9.136,9.136,0,0,1-2.449,1.015c-.635.158-.745.319-.747.986,0,1.007-.01,2.014.006,3.021,0,.273-.077.347-.345.34-.686-.019-1.372-.017-2.058,0-.247.006-.323-.065-.319-.316.014-1.007.007-2.014,0-3.021,0-.669-.134-.857-.777-1.015a9.073,9.073,0,0,1-2.448-1.019c-.542-.319-.74-.288-1.19.16-.714.71-1.433,1.415-2.131,2.141-.2.212-.316.2-.511,0-.459-.489-.932-.968-1.425-1.422-.227-.209-.179-.319.015-.507.733-.712,1.451-1.438,2.171-2.164a.747.747,0,0,0,.14-1.124,9.849,9.849,0,0,1-1.069-2.569c-.143-.538-.338-.681-.9-.684-1.022,0-2.043-.01-3.065,0-.26,0-.352-.049-.343-.331.023-.7.017-1.4,0-2.1,0-.234.071-.3.3-.291C381.764,122.376,382.319,122.366,382.873,122.366Z" transform="translate(-18.744 -18.671)" fill="#124568"/>
    <path id="Path_10563" data-name="Path 10563" d="M642.228,583.7a2.062,2.062,0,0,1-2.047-2.023,2.038,2.038,0,0,1,4.075-.018A2.064,2.064,0,0,1,642.228,583.7Z" transform="translate(-260.385 -455.591)" fill="#fff"/>
    <path id="Path_10564" data-name="Path 10564" d="M442.874,579.661a2.033,2.033,0,0,1,2.025,2.033,2.035,2.035,0,0,1-4.069-.022A2.028,2.028,0,0,1,442.874,579.661Z" transform="translate(-74.59 -455.604)" fill="#fff"/>
    <path id="Path_10565" data-name="Path 10565" d="M742.139,579.666a2.027,2.027,0,1,1-2.013,2.029A2.016,2.016,0,0,1,742.139,579.666Z" transform="translate(-353.533 -455.608)" fill="#fff"/>
    <path id="Path_10566" data-name="Path 10566" d="M841.652,579.658a2.024,2.024,0,0,1,2.036,2.016,2.033,2.033,0,1,1-2.036-2.016Z" transform="translate(-446.262 -455.601)" fill="#fff"/>
    <path id="Path_10567" data-name="Path 10567" d="M544.712,581.671a2.024,2.024,0,1,1-2.043-2A2.005,2.005,0,0,1,544.712,581.671Z" transform="translate(-167.636 -455.613)" fill="#fff"/>
    <path id="Path_10568" data-name="Path 10568" d="M468.3,190.8a7.454,7.454,0,1,1-7.456,7.443A7.436,7.436,0,0,1,468.3,190.8Z" transform="translate(-93.244 -93.186)" fill="#fff"/>
    <path id="Path_10569" data-name="Path 10569" d="M661.717,600.17a.664.664,0,1,1-1.326-.063.664.664,0,0,1,1.326.063Z" transform="translate(-279.219 -474.071)" fill="#124567"/>
    <path id="Path_10570" data-name="Path 10570" d="M461.562,599.469a.674.674,0,0,1,.651.684.651.651,0,0,1-.672.655.672.672,0,0,1-.659-.676A.688.688,0,0,1,461.562,599.469Z" transform="translate(-93.28 -474.065)" fill="#124567"/>
    <path id="Path_10571" data-name="Path 10571" d="M760.565,599.48a.7.7,0,0,1,.66.685.665.665,0,0,1-.685.651.685.685,0,0,1-.665-.676A.709.709,0,0,1,760.565,599.48Z" transform="translate(-371.939 -474.075)" fill="#124567"/>
    <path id="Path_10572" data-name="Path 10572" d="M861.16,600.138a.672.672,0,0,1-.666.668.65.65,0,0,1-.665-.662.676.676,0,0,1,.659-.677A.689.689,0,0,1,861.16,600.138Z" transform="translate(-465.094 -474.063)" fill="#124567"/>
    <path id="Path_10573" data-name="Path 10573" d="M561.2,600.8a.669.669,0,0,1-.672-.654.675.675,0,1,1,1.35,0A.678.678,0,0,1,561.2,600.8Z" transform="translate(-186.148 -474.063)" fill="#124567"/>
    <path id="Path_10574" data-name="Path 10574" d="M486.754,222.741a6.1,6.1,0,1,1,6.106-6.084A6.107,6.107,0,0,1,486.754,222.741Z" transform="translate(-111.698 -111.588)" fill="#124568"/>
    <path id="Path_10575" data-name="Path 10575" d="M501.477,226.07a5.425,5.425,0,1,1-5.433-5.405A5.446,5.446,0,0,1,501.477,226.07Z" transform="translate(-121.001 -121.022)" fill="#fff"/>
    <path id="Path_10576" data-name="Path 10576" d="M518.93,244.522a4.059,4.059,0,1,1-4.066-4.065A4.081,4.081,0,0,1,518.93,244.522Z" transform="translate(-139.814 -139.468)" fill="#124568"/>
  </g>
</svg>
