<svg xmlns="http://www.w3.org/2000/svg" width="40.17" height="36.13" viewBox="0 0 40.17 36.13">
  <g id="Group_5108" data-name="Group 5108" transform="translate(-428.623 -122.29)">
    <path id="Path_10627" data-name="Path 10627" d="M428.623,139.5a10.309,10.309,0,0,0,.3-1.665,17.436,17.436,0,0,1,17.327-14.206c6.078.014,12.157,0,18.235.01a.535.535,0,0,0,.571-.326,1.991,1.991,0,0,1,3.732.928q.015,5.412,0,10.824a1.994,1.994,0,0,1-3.753.893.446.446,0,0,0-.471-.294c-.64.02-1.28.007-1.956.007.207.784.429,1.542.559,2.323a17.026,17.026,0,0,1-2.763,12.831,16.513,16.513,0,0,1-11.088,7.275,16.938,16.938,0,0,1-16.94-6.3,16.684,16.684,0,0,1-3.668-9c-.009-.081.043-.19-.083-.232v-.314c.07-.073.029-.165.04-.248-.015-.1.036-.209-.04-.3v-1.569c.048-.043.039-.1.04-.157s.008-.114-.04-.157Z" transform="translate(0)" fill="#fff"/>
    <path id="Path_10628" data-name="Path 10628" d="M428.623,307.415c.116.088.074.208.066.321-.026.028-.048.024-.066-.008Z" transform="translate(0 -165.715)" fill="#444"/>
    <path id="Path_10629" data-name="Path 10629" d="M428.623,310.408l.067.008c-.007.081.067.184-.067.228Z" transform="translate(0 -168.394)" fill="#797979"/>
    <path id="Path_10630" data-name="Path 10630" d="M428.623,289.457c.093.019.074.088.068.152-.02.041-.043.041-.068.005Z" transform="translate(0 -149.64)" fill="#848484"/>
    <path id="Path_10631" data-name="Path 10631" d="M428.623,290.909l.068-.005c.015.07.012.132-.068.162Z" transform="translate(0 -150.935)" fill="#565656"/>
    <path id="Path_10632" data-name="Path 10632" d="M465.905,158.552c2.177,0,4.294,0,6.411-.006.231,0,.276.117.331.29a15.656,15.656,0,0,1-1.626,13.574,15.456,15.456,0,0,1-11.559,7.43,16.061,16.061,0,1,1-1.932-31.989q9.12.012,18.239,0c.284,0,.4.04.4.372q-.023,4.315,0,8.629c0,.282-.052.373-.358.372q-5.315-.018-10.63,0a.691.691,0,0,1-.539-.236,9.684,9.684,0,0,0-9.983-2.711,9.548,9.548,0,0,0-7.1,7.51,10.064,10.064,0,1,0,18.49-2.97C466,158.745,465.971,158.677,465.905,158.552Z" transform="translate(-11.378 -22.878)" fill="#124365"/>
    <path id="Path_10633" data-name="Path 10633" d="M520.345,235.524a8.7,8.7,0,1,1,8.724-8.674A8.7,8.7,0,0,1,520.345,235.524Z" transform="translate(-74.331 -85.788)" fill="#124364"/>
    <path id="Path_10634" data-name="Path 10634" d="M786.212,141.189q0-2.569,0-5.138a1.524,1.524,0,0,1,.014-.352.626.626,0,0,1,.638-.527.648.648,0,0,1,.67.54,1.885,1.885,0,0,1,.015.352q0,5.118,0,10.237c0,.065,0,.131,0,.2a.665.665,0,0,1-.678.7.646.646,0,0,1-.656-.717C786.209,144.719,786.212,142.954,786.212,141.189Z" transform="translate(-320.094 -11.531)" fill="#124364"/>
    <path id="Path_10635" data-name="Path 10635" d="M470.033,162a15.617,15.617,0,0,0-4.259.374,13.252,13.252,0,0,0-9.569,8.747,12.612,12.612,0,0,0-.705,4.15.707.707,0,0,1-.381.711.671.671,0,0,1-.957-.7,13.79,13.79,0,0,1,.687-4.313,14.569,14.569,0,0,1,10.386-9.842,13.273,13.273,0,0,1,3.641-.465c1.294,0,2.588,0,3.882,0,.505,0,.8.241.817.643.013.419-.3.69-.816.692C471.974,162,471.19,162,470.033,162Z" transform="translate(-22.861 -34.346)" fill="#fff"/>
    <path id="Path_10636" data-name="Path 10636" d="M698.784,262.727a2.01,2.01,0,1,1-2.008,2.034A2.027,2.027,0,0,1,698.784,262.727Z" transform="translate(-240.038 -125.712)" fill="#fff"/>
    <path id="Path_10637" data-name="Path 10637" d="M662.96,373.294a.651.651,0,0,1,.549.353.687.687,0,0,1-.082.768,14.886,14.886,0,0,1-2.371,2.546,14.3,14.3,0,0,1-1.705,1.246.7.7,0,0,1-1.029-.148.685.685,0,0,1,.317-.988,13.416,13.416,0,0,0,3.682-3.416A.767.767,0,0,1,662.96,373.294Z" transform="translate(-205.519 -224.686)" fill="#fff"/>
    <path id="Path_10638" data-name="Path 10638" d="M530.837,243.915a6.688,6.688,0,1,1,6.743,6.666A6.695,6.695,0,0,1,530.837,243.915Z" transform="translate(-91.496 -102.847)" fill="#fff"/>
    <path id="Path_10639" data-name="Path 10639" d="M710.956,276.232a.663.663,0,0,1-1.326-.015.663.663,0,1,1,1.326.015Z" transform="translate(-251.544 -137.188)" fill="#124364"/>
    <path id="Path_10640" data-name="Path 10640" d="M616.076,295.943a5.447,5.447,0,0,1-1.651,4.428.377.377,0,0,1-.563.055,2.8,2.8,0,0,1-1.212-1.717.493.493,0,0,1,.119-.5,2.446,2.446,0,0,0,.592-1.257c.016-.1-.019-.267.167-.254A4.059,4.059,0,0,0,616.076,295.943Z" transform="translate(-164.713 -155.445)" fill="#124364"/>
    <path id="Path_10641" data-name="Path 10641" d="M572.678,326.494a5.328,5.328,0,0,1-4.82-.27.273.273,0,0,1-.131-.359,2.731,2.731,0,0,1,1.366-1.819.4.4,0,0,1,.4,0,2.321,2.321,0,0,0,1.412.184c.162-.033.246-.005.312.174A4.022,4.022,0,0,0,572.678,326.494Z" transform="translate(-124.502 -180.553)" fill="#124364"/>
    <path id="Path_10642" data-name="Path 10642" d="M544.98,293.026a5.216,5.216,0,0,1-1.334-3.02,5.489,5.489,0,0,1,.068-1.56c.038-.2.116-.3.318-.316a2.734,2.734,0,0,1,2.181.763.342.342,0,0,1,.1.317,2.532,2.532,0,0,0,.28,1.476c.049.092.106.176-.026.265A4.09,4.09,0,0,0,544.98,293.026Z" transform="translate(-102.939 -148.443)" fill="#124364"/>
    <path id="Path_10643" data-name="Path 10643" d="M550.516,252.976a5.409,5.409,0,0,1,4.017-2.609.309.309,0,0,1,.378.233,2.736,2.736,0,0,1-.032,2.206.387.387,0,0,1-.3.269,2.511,2.511,0,0,0-1.319.721c-.093.1-.159.142-.288.038A4.109,4.109,0,0,0,550.516,252.976Z" transform="translate(-109.113 -114.644)" fill="#124364"/>
    <path id="Path_10644" data-name="Path 10644" d="M604.918,251.09a5.427,5.427,0,0,1,3.761,3.061.241.241,0,0,1-.067.335,2.778,2.778,0,0,1-2.242.7A.331.331,0,0,1,606.1,255a2.528,2.528,0,0,0-1.082-1.044c-.146-.075-.182-.132-.124-.293A3.95,3.95,0,0,0,604.918,251.09Z" transform="translate(-157.761 -115.295)" fill="#124364"/>
    <path id="Path_10645" data-name="Path 10645" d="M581.935,289.664a1.336,1.336,0,1,1,2.672.006,1.336,1.336,0,0,1-2.672-.006Z" transform="translate(-137.237 -148.622)" fill="#124364"/>
  </g>
</svg>
