<svg xmlns="http://www.w3.org/2000/svg" width="34.83" height="37.795" viewBox="0 0 34.83 37.795">
  <g id="Group_5110" data-name="Group 5110" transform="translate(-392.163 -78.667)">
    <path id="Path_10654" data-name="Path 10654" d="M407.765,116.461h-10.95c-.743,0-.92-.18-.921-.936q0-1.721,0-3.442c0-.632.178-.84.795-.833.318,0,.286-.157.27-.358q-.223-2.831-.445-5.662-.272-3.451-.545-6.9c-.074-.937-.142-1.874-.228-2.81-.037-.4,0-.745.44-.915.262-.1.026-.231-.017-.3-.763-1.343-1.538-2.679-2.31-4.017a.293.293,0,0,0-.022-.035,5.487,5.487,0,0,1-.939-2.86c-.211-1.824-.467-3.643-.714-5.463a.7.7,0,0,1,.283-.8.69.69,0,0,1,.805.1q2.779,1.915,5.564,3.822a1.572,1.572,0,0,1,.475.562c1.608,2.861,3.225,5.717,4.824,8.583a.611.611,0,0,0,.669.389c.327-.034.768.106.96-.06.227-.2.07-.648.071-.988q.01-4,0-8a1.716,1.716,0,0,1,.137-.681q1.146-2.746,2.277-5.5c.128-.31.28-.592.657-.6s.535.269.679.574q1.228,2.6,2.478,5.184a1.894,1.894,0,0,1,.188.876q-.055,4.4-.087,8.792c0,.126-.148.344.134.4.232.042.335-.073.436-.27q2.93-5.723,5.875-11.438.954-1.855,1.909-3.71c.275-.532.532-.616,1.073-.341q1.972,1,3.938,2.015c.5.257.581.538.322,1.05-.405.8-.809,1.6-1.233,2.388-.143.266-.157.405.164.549.6.27,1.184.59,1.769.9a.633.633,0,0,1,.323.989q-2.048,3.991-4.108,7.977c-.219.425-.569.559-.911.369a.642.642,0,0,1-.193-.933q1.849-3.605,3.711-7.2c.131-.253.128-.365-.148-.484a12.256,12.256,0,0,1-1.1-.566c-.178-.1-.268-.1-.374.108q-2.144,4.2-4.308,8.385c-.064.123-.116.21.06.288a.64.64,0,0,1,.358.721q-.223,2.81-.444,5.62-.272,3.451-.545,6.9c-.077.978-.149,1.957-.24,2.933-.028.3,0,.445.369.424.456-.027.69.222.693.68q.012,1.908,0,3.816c0,.51-.256.714-.848.714Z" transform="translate(0)" fill="#fff"/>
    <path id="Path_10655" data-name="Path 10655" d="M449.671,272.853c3.344,0,6.689,0,10.033-.007.3,0,.4.05.373.378-.249,2.987-.481,5.975-.718,8.963-.038.482-.084.964-.107,1.446-.009.191-.061.285-.264.259a1.632,1.632,0,0,0-.207,0q-9.121,0-18.242.008c-.351,0-.45-.074-.478-.443-.245-3.347-.518-6.693-.786-10.038-.045-.566-.056-.565.528-.565Z" transform="translate(-41.873 -172.651)" fill="#124162"/>
    <path id="Path_10656" data-name="Path 10656" d="M446.887,233.346c3.454,0,6.908,0,10.363-.007.31,0,.43.05.393.4-.087.81-.139,1.624-.187,2.437-.015.255-.115.313-.358.312q-10.2-.01-20.394,0c-.276,0-.355-.091-.372-.343-.052-.8-.108-1.6-.187-2.4-.031-.315.039-.413.379-.412C439.978,233.351,443.432,233.346,446.887,233.346Z" transform="translate(-39.1 -137.522)" fill="#124162"/>
    <path id="Path_10657" data-name="Path 10657" d="M447.6,386.354c-3.412,0-6.825,0-10.237.007-.322,0-.426-.074-.412-.407.028-.648.032-1.3,0-1.947-.018-.353.121-.394.42-.392,2.335.01,4.67.006,7,.006q6.735,0,13.47-.008c.338,0,.448.069.43.423-.032.648-.03,1.3,0,1.947.014.327-.1.379-.4.378C454.45,386.35,451.024,386.354,447.6,386.354Z" transform="translate(-39.818 -271.137)" fill="#124162"/>
    <path id="Path_10658" data-name="Path 10658" d="M589.156,134.663c.073-.156.121-.267.176-.374q2.634-5.128,5.263-10.259c.153-.3.263-.356.572-.185.82.452,1.661.866,2.5,1.283.183.091.236.165.131.368q-2.314,4.479-4.614,8.966c-.057.111-.1.206-.267.206C591.678,134.66,590.439,134.663,589.156,134.663Z" transform="translate(-175.153 -40.084)" fill="#124162"/>
    <path id="Path_10659" data-name="Path 10659" d="M443.174,161.929c-.6,0-1.126-.006-1.651,0a.327.327,0,0,1-.326-.189q-1.848-3.113-3.71-6.218c-.059-.1-.092-.156.022-.22.036-.02.069-.045.1-.067l1.291-.824a9.382,9.382,0,0,1,.775,1.3q1.644,2.9,3.269,5.8C443.016,161.636,443.079,161.755,443.174,161.929Z" transform="translate(-40.253 -67.349)" fill="#124162"/>
    <path id="Path_10660" data-name="Path 10660" d="M550.076,151.061c0,1.271-.008,2.543.006,3.814,0,.273-.043.379-.351.374-.921-.015-.925,0-.939-.91-.036-2.349-.063-4.7-.11-7.048-.005-.278.071-.362.338-.351a4.132,4.132,0,0,0,.827-.038c.276-.045.317.057.315.3-.011,1.285-.005,2.571-.005,3.856Z" transform="translate(-139.167 -60.661)" fill="#124162"/>
    <path id="Path_10661" data-name="Path 10661" d="M404.928,117.35l4.421,3.038-3.705,2.4Z" transform="translate(-11.35 -34.395)" fill="#124162"/>
    <path id="Path_10662" data-name="Path 10662" d="M527.965,152.441c0,1.243-.009,2.486.007,3.729,0,.272-.065.346-.339.345-.978,0-.978.008-.978-.979,0-2.266.006-4.531-.008-6.8,0-.3.065-.392.375-.407.827-.04.836-.059.842.751.01,1.119,0,2.238,0,3.357Z" transform="translate(-119.575 -61.929)" fill="#124162"/>
    <path id="Path_10663" data-name="Path 10663" d="M421.658,175.655c-.6,0-1.12-.008-1.643,0a.324.324,0,0,1-.317-.205q-1.33-2.311-2.669-4.618c-.106-.182-.106-.28.085-.392.345-.2.7-.626,1.005-.589s.438.6.64.94C419.717,172.387,420.665,173.986,421.658,175.655Z" transform="translate(-22.046 -81.075)" fill="#124162"/>
    <path id="Path_10664" data-name="Path 10664" d="M649.9,93.864l-.073.145c-.328.637-.664,1.27-.981,1.913-.088.179-.158.207-.337.114-.879-.46-1.764-.908-2.65-1.354-.174-.088-.249-.159-.134-.369.343-.629.661-1.271.987-1.91.059-.117.1-.212.271-.12.928.486,1.863.957,2.794,1.434C649.831,93.747,649.9,93.774,649.9,93.864Z" transform="translate(-225.397 -12.073)" fill="#124162"/>
    <path id="Path_10665" data-name="Path 10665" d="M531.4,102.961l-3.714.187,1.765-4.268Z" transform="translate(-120.498 -17.973)" fill="#124162"/>
  </g>
</svg>
