<svg xmlns="http://www.w3.org/2000/svg" width="23.953" height="19.45" viewBox="0 0 23.953 19.45">
  <path id="Twitter" d="M192.516,8730.12a10.269,10.269,0,0,0,2.437-2.53,8.983,8.983,0,0,1-2.812.75,4.786,4.786,0,0,0,2.156-2.72,10.076,10.076,0,0,1-3.094,1.22,4.945,4.945,0,0,0-8.531,3.38,4.62,4.62,0,0,0,.14,1.12,14.267,14.267,0,0,1-10.171-5.149,4.754,4.754,0,0,0-.657,2.479,4.84,4.84,0,0,0,2.2,4.08,5.162,5.162,0,0,1-2.25-.61v.051a4.93,4.93,0,0,0,3.937,4.829,5.662,5.662,0,0,1-1.266.181,5.967,5.967,0,0,1-.937-.09,4.9,4.9,0,0,0,4.594,3.42,9.915,9.915,0,0,1-6.094,2.109,10.584,10.584,0,0,1-1.172-.09,13.986,13.986,0,0,0,21.516-11.77Z" transform="translate(-171 -8725.3)" fill="#e8f1f2"/>
</svg>
